<svg xmlns="http://www.w3.org/2000/svg" width="732" height="86.593" viewBox="0 0 732 86.593">
  <g id="Monet_logo" transform="translate(0.138)">
    <g id="Group_518" data-name="Group 518" transform="translate(343.9 17.68)">
      <path id="Path_1073" data-name="Path 1073" d="M171.1,34.718V60.635h10.046l.2-15.47.2-15.47h10.046l.2,5.224.2,5.425h10.046V29.293l4.822.2,4.822.2.2,15.47.2,15.47h10.046V8.8H212.086V18.846H202.041V28.891H191.995V18.846H181.146V8.8H171.1V34.718Z" transform="translate(-171.1 -8.8)" fill="#1c3f94"/>
      <path id="Path_1074" data-name="Path 1074" d="M223.346,14.024v5.023H213.3V50.389h10.046V60.434h30.539V50.389H263.93V19.047H253.884V8.8H223.346Zm30.137,20.694V49.987l-15.068.2-15.068.2V19.047l15.068.2,15.068.2Z" transform="translate(-128.515 -8.8)" fill="#1c3f94"/>
      <path id="Path_1075" data-name="Path 1075" d="M255,34.718V60.635h10.046V29.293l4.822.2,4.822.2.2,5.224.2,5.425h10.046V50.389h10.046V60.434h10.046V8.8H295.182V40.142l-4.822-.2-4.822-.2-.2-5.425-.2-5.224H275.091V19.047H265.046V8.8H255Z" transform="translate(-86.435 -8.8)" fill="#1c3f94"/>
      <path id="Path_1076" data-name="Path 1076" d="M296.8,34.718V60.635h51.032V50.389l-20.091-.2-20.091-.2-.2-4.822-.2-4.822h30.539V29.494H307.247l.2-4.822.2-4.822,20.091-.2,20.091-.2V8.8H296.8Z" transform="translate(-44.253 -8.8)" fill="#1c3f94"/>
      <path id="Path_1077" data-name="Path 1077" d="M338.6,14.024v5.023h20.493V60.434H369.14l.2-20.493.2-20.493,10.448-.2,10.247-.2V8.8H338.4v5.224Z" transform="translate(-2.274 -8.8)" fill="#1c3f94"/>
    </g>
    <path id="Path_1078" data-name="Path 1078" d="M11.9,4.216,14.715.8h57.26l3.215,3.014V45.6l-4.42,2.813H16.523l-3.616-1.808L11.5,41.384Z" transform="translate(11.744 0.807)" fill="#ed174f"/>
    <path id="Path_1079" data-name="Path 1079" d="M59.2,4.216,61.814.8h57.461l3.215,3.014V45.6l-4.42,2.813H63.823l-3.616-1.808L58.8,41.384Z" transform="translate(59.476 0.807)" fill="#1c3f94"/>
    <path id="Path_1080" data-name="Path 1080" d="M107.1,4.216,109.915.8h57.461l3.215,3.014V45.6l-4.621,2.813H111.924l-3.616-1.808L106.7,41.384Z" transform="translate(107.813 0.807)" fill="#00aa4f"/>
    <path id="Path_1081" data-name="Path 1081" d="M124.431,31.532l6.027,6.027V53.632l-1.607,1.607a4.518,4.518,0,0,0-1.607,3.415c0,2.21,1.607,3.215,6.027,3.215,5.626,0,7.233-2.612,4.018-6.228-1.607-1.808-1.607-2.21-1.607-7.434V42.582l2.009,2.009a6.267,6.267,0,0,1,2.21,4.42,7.627,7.627,0,0,0,1.206,3.616c1,1,1.406,1.205,2.813.6,3.014-1.205,6.228-5.023,6.228-7.032,0-1.607-2.009-3.014-4.42-3.014-1.808,0-2.612-.6-6.027-4.018l-4.018-4.018V25.5c-6.027,0-12.055-1-18.082-1Z" transform="translate(118.812 24.724)" fill="#879dbb"/>
    <path id="Path_1082" data-name="Path 1082" d="M118.646,40.832c-1.808.6-2.009.6-10.046-4.822-4.42-3.014-8.237-5.626-8.237-5.826a62.76,62.76,0,0,1,7.434-5.425h0l4.621-3.215,2.612-1.808.6-.4h0l1.808-1.205V11.7l-3.616,2.411h0l-.2.2-3.817,2.411-6.63,4.42h0c-6.429,4.42-7.434,5.425-8.036,6.831a6.118,6.118,0,0,0,1,5.626,101.926,101.926,0,0,0,9.242,6.63c7.635,5.224,8.237,5.626,8.237,7.434,0,3.014,3.415,4.822,5.626,2.813,1.808-1.406,3.817-5.224,3.817-7.032C123.468,41.234,121.258,40.029,118.646,40.832Z" transform="translate(95.867 11.807)" fill="#879dbb"/>
    <path id="Path_1083" data-name="Path 1083" d="M152.777,19.234c9.242,6.228,10.648,7.434,11.05,9.041a6.119,6.119,0,0,1-1,5.626,101.92,101.92,0,0,1-9.242,6.63c-7.635,5.224-8.237,5.626-8.237,7.434,0,3.014-3.416,4.822-5.626,2.813-1.808-1.406-3.817-5.224-3.817-7.032,0-2.612,2.21-4.018,4.822-3.014,1.808.6,2.009.6,10.046-4.822C155.188,32.9,159,30.284,159,30.083a76.625,76.625,0,0,0-8.438-6.027l-8.438-5.626V11.8Z" transform="translate(137.279 11.908)" fill="#879dbb"/>
    <path id="Path_1084" data-name="Path 1084" d="M76.429,31.33l6.027,6.027V53.43l-1.607,1.607a4.518,4.518,0,0,0-1.607,3.416c0,2.21,1.607,3.215,6.027,3.215,5.626,0,7.233-2.612,4.018-6.228-1.607-1.808-1.607-2.21-1.607-7.434V42.38l2.009,2.009a6.267,6.267,0,0,1,2.21,4.42A7.628,7.628,0,0,0,93.1,52.426c1,1,1.406,1.205,2.813.6,3.014-1.205,6.228-5.023,6.228-7.032,0-1.607-2.009-3.014-4.42-3.014-1.808,0-2.612-.6-6.027-4.018L87.68,34.947V25.3c-6.027,0-11.854-.6-17.68-.6Z" transform="translate(70.778 24.925)" fill="#879dbb"/>
    <path id="Path_1085" data-name="Path 1085" d="M70.745,40.832c-1.808.6-2.009.6-10.046-4.822-4.42-3.014-8.237-5.626-8.237-5.826A62.761,62.761,0,0,1,59.9,24.759h0l4.621-3.215,2.612-1.808.6-.4h0l1.808-1.205V11.7l-3.415,2.612h0l-.2.2-3.817,2.411-6.63,4.42h0c-6.429,4.42-7.434,5.425-8.036,6.831a6.119,6.119,0,0,0,1,5.626,101.929,101.929,0,0,0,9.242,6.63c7.635,5.224,8.237,5.626,8.237,7.434,0,3.014,3.416,4.822,5.626,2.813,1.808-1.406,3.817-5.224,3.817-7.032C75.567,41.234,73.357,40.029,70.745,40.832Z" transform="translate(47.732 11.807)" fill="#879dbb"/>
    <path id="Path_1086" data-name="Path 1086" d="M105.077,19.234c9.242,6.228,10.648,7.434,11.05,9.041a6.119,6.119,0,0,1-1,5.626,101.939,101.939,0,0,1-9.242,6.63c-7.635,5.224-8.237,5.626-8.237,7.434,0,3.014-3.415,4.822-5.626,2.813-1.808-1.406-3.817-5.224-3.817-7.032,0-2.612,2.21-4.018,4.822-3.014,1.808.6,2.009.6,10.046-4.822,4.42-3.014,8.237-5.626,8.237-5.826a76.631,76.631,0,0,0-8.438-6.027L94.428,18.43V11.8Z" transform="translate(89.144 11.908)" fill="#879dbb"/>
    <path id="Path_1087" data-name="Path 1087" d="M29.633,31.734l6.027,6.027V53.834l-1.607,1.607a4.518,4.518,0,0,0-1.607,3.416c0,2.21,1.607,3.215,6.027,3.215,5.626,0,7.233-2.612,4.018-6.228-1.607-1.808-1.607-2.21-1.607-7.434V42.784l2.009,2.009a6.267,6.267,0,0,1,2.21,4.42,7.628,7.628,0,0,0,1.205,3.616c1,1,1.406,1.205,2.813.6,3.014-1.205,6.228-5.023,6.228-7.032,0-1.607-2.009-3.014-4.42-3.014-1.808,0-2.612-.6-6.027-4.018L40.884,35.35V25.706c-6.027,0-12.457-1.406-18.484-1.406Z" transform="translate(22.743 24.522)" fill="#879dbb"/>
    <path id="Path_1088" data-name="Path 1088" d="M23.646,40.832c-1.808.6-2.009.6-10.046-4.822C9.18,33,5.363,30.385,5.363,30.184A62.763,62.763,0,0,1,12.8,24.759h0l4.621-3.215,2.612-1.808.6-.4h0l1.808-1.205V11.7l-3.616,2.612h0l-.2.2-3.817,2.411-6.63,4.42h0C1.746,25.764.742,26.768.139,28.175a6.119,6.119,0,0,0,1,5.626,101.93,101.93,0,0,0,9.242,6.63c7.635,5.224,8.237,5.626,8.237,7.434,0,3.014,3.416,4.822,5.626,2.813,1.808-1.406,3.817-5.224,3.817-7.032C28.267,41.234,26.258,40.029,23.646,40.832Z" transform="translate(0 11.807)" fill="#879dbb"/>
    <path id="Path_1089" data-name="Path 1089" d="M57.676,19.234c9.242,6.228,10.648,7.434,11.05,9.041a6.119,6.119,0,0,1-1,5.626,101.924,101.924,0,0,1-9.242,6.63c-7.635,5.224-8.237,5.626-8.237,7.434,0,3.014-3.416,4.822-5.626,2.813C43.009,49.371,41,45.553,41,43.745c0-2.612,2.21-4.018,4.822-3.014,1.808.6,2.009.6,10.046-4.822,4.42-3.014,8.237-5.626,8.237-5.826a76.632,76.632,0,0,0-8.438-6.027L47.027,18.43V11.8Z" transform="translate(41.513 11.908)" fill="#879dbb"/>
    <g id="Group_519" data-name="Group 519" transform="translate(22.239)">
      <path id="Path_1090" data-name="Path 1090" d="M70.269,50.228H18.032A7.119,7.119,0,0,1,11,43.2V7.032A7.119,7.119,0,0,1,18.032,0H70.269A6.988,6.988,0,0,1,77.3,7.032V43.4A6.822,6.822,0,0,1,70.269,50.228ZM18.032,2.411a4.547,4.547,0,0,0-4.621,4.621V43.4a4.547,4.547,0,0,0,4.621,4.621H70.269A4.547,4.547,0,0,0,74.89,43.4V7.032a4.547,4.547,0,0,0-4.621-4.621Z" transform="translate(-11)" fill="#879dbb"/>
    </g>
    <g id="Group_520" data-name="Group 520" transform="translate(30.879 9.041)">
      <path id="Path_1091" data-name="Path 1091" d="M62.113,36.646h-44.4A2.443,2.443,0,0,1,15.3,34.235V6.911A2.443,2.443,0,0,1,17.711,4.5h44.6a2.443,2.443,0,0,1,2.411,2.411V34.436A2.614,2.614,0,0,1,62.113,36.646ZM17.711,5.705a1.3,1.3,0,0,0-1.205,1.205V34.436a1.3,1.3,0,0,0,1.205,1.205h44.6a1.3,1.3,0,0,0,1.205-1.205V6.911a1.3,1.3,0,0,0-1.205-1.205Z" transform="translate(-15.3 -4.5)" fill="#d5dfed"/>
    </g>
    <g id="Group_521" data-name="Group 521" transform="translate(117.271)">
      <path id="Path_1092" data-name="Path 1092" d="M117.569,50.228H65.332A7.119,7.119,0,0,1,58.3,43.2V7.032A7.119,7.119,0,0,1,65.332,0h52.237A7.119,7.119,0,0,1,124.6,7.032V43.4A6.947,6.947,0,0,1,117.569,50.228ZM65.332,2.411a4.547,4.547,0,0,0-4.621,4.621V43.4a4.547,4.547,0,0,0,4.621,4.621h52.237A4.547,4.547,0,0,0,122.19,43.4V7.032a4.547,4.547,0,0,0-4.621-4.621Z" transform="translate(-58.3)" fill="#879dbb"/>
    </g>
    <g id="Group_522" data-name="Group 522" transform="translate(125.709 9.041)">
      <path id="Path_1093" data-name="Path 1093" d="M109.313,36.646h-44.4A2.443,2.443,0,0,1,62.5,34.235V6.911A2.443,2.443,0,0,1,64.911,4.5h44.6a2.28,2.28,0,0,1,2.21,2.411V34.436A2.28,2.28,0,0,1,109.313,36.646ZM64.911,5.705a1.3,1.3,0,0,0-1.205,1.205V34.436a1.3,1.3,0,0,0,1.205,1.205h44.6a1.3,1.3,0,0,0,1.206-1.205V6.911a1.3,1.3,0,0,0-1.206-1.205Z" transform="translate(-62.5 -4.5)" fill="#d5dfed"/>
    </g>
    <g id="Group_523" data-name="Group 523" transform="translate(213.307)">
      <path id="Path_1094" data-name="Path 1094" d="M165.369,50.228H113.132A7.119,7.119,0,0,1,106.1,43.2V7.032A7.119,7.119,0,0,1,113.132,0h52.237A7.119,7.119,0,0,1,172.4,7.032V43.4A6.947,6.947,0,0,1,165.369,50.228ZM113.132,2.411a4.547,4.547,0,0,0-4.621,4.621V43.4a4.547,4.547,0,0,0,4.621,4.621h52.237A4.547,4.547,0,0,0,169.99,43.4V7.032a4.547,4.547,0,0,0-4.621-4.621Z" transform="translate(-106.1)" fill="#879dbb"/>
    </g>
    <g id="Group_524" data-name="Group 524" transform="translate(221.745 9.041)">
      <path id="Path_1095" data-name="Path 1095" d="M157.314,36.646h-44.6a2.443,2.443,0,0,1-2.411-2.411V6.911A2.443,2.443,0,0,1,112.711,4.5h44.6a2.443,2.443,0,0,1,2.411,2.411V34.436A2.568,2.568,0,0,1,157.314,36.646Zm-44.6-30.941a1.3,1.3,0,0,0-1.206,1.205V34.436a1.3,1.3,0,0,0,1.206,1.205h44.6a1.3,1.3,0,0,0,1.206-1.205V6.911a1.3,1.3,0,0,0-1.206-1.205Z" transform="translate(-110.3 -4.5)" fill="#d5dfed"/>
    </g>
  </g>
</svg>
