<?xml version="1.0" encoding="utf-8"?>
<!-- Generator: Adobe Illustrator 22.0.1, SVG Export Plug-In . SVG Version: 6.00 Build 0)  -->
<svg version="1.1" id="Layer_1" xmlns="http://www.w3.org/2000/svg" xmlns:xlink="http://www.w3.org/1999/xlink" x="0px" y="0px"
	 width="770.9px" height="536.8px" viewBox="0 0 770.9 536.8" style="enable-background:new 0 0 770.9 536.8;" xml:space="preserve"
	>
<style type="text/css">
	.st0{fill:url(#SVGID_2_);}
	.st1{fill:url(#SVGID_3_);}
	.st2{fill:#474747;}
	.st3{fill:#575757;}
	.st4{fill:#616161;}
	.st5{fill:#F26630;}
	.st6{fill:#D1592A;}
	.st7{fill:#8C5642;}
	.st8{fill:#663F30;}
	.st9{fill:#C2C2C2;}
	.st10{fill:#A8A8A8;}
	.st11{fill:#696969;}
	.st12{fill:#404040;}
	.st13{fill:#545454;}
	.st14{fill:#A8774F;}
	.st15{fill:#269ED0;}
	.st16{opacity:0.2;fill:#FFFFFF;enable-background:new    ;}
	.st17{fill:#00AFEF;}
	.st18{fill:#BDBDBD;}
	.st19{fill:#757575;}
	.st20{opacity:0.1;fill:#FFFFFF;enable-background:new    ;}
	.st21{fill:#FFFFFF;}
	.st22{fill:#8F8F8F;}
	.st23{fill:#8D8E8F;}
	.st24{fill:url(#SVGID_4_);}
	.st25{fill:url(#SVGID_5_);}
	.st26{fill:url(#SVGID_6_);}
	.st27{fill:#69A4D3;}
	.st28{fill:#009AD1;}
	.st29{fill:#098DBF;}
	.st30{fill:url(#SVGID_7_);}
	.st31{opacity:0.18;fill:#1C1D39;enable-background:new    ;}
	.st32{fill:#404041;}
	.st33{fill:#F2521D;}
	.st34{fill:#2B2B2B;}
	.st35{fill:#58595B;}
	.st36{fill:url(#XMLID_2_);}
	.st37{fill:url(#XMLID_3_);}
	.st38{fill:url(#XMLID_4_);}
	.st39{fill:url(#XMLID_5_);}
	.st40{fill:url(#XMLID_6_);}
	.st41{fill:url(#XMLID_7_);}
	.st42{fill:#353544;}
	.st43{fill:url(#XMLID_8_);}
	.st44{fill:url(#XMLID_9_);}
	.st45{fill:#545460;}
	.st46{fill:#5C5C63;}
	.st47{fill:#1B1C1C;}
	.st48{fill:#231F20;}
	.st49{fill:#B76255;}
	.st50{fill:#414151;}
	.st51{fill:#1C3F94;}
	.st52{fill:url(#SVGID_8_);}
	.st53{fill:#5E5E5E;}
	.st54{fill:#4D4D4D;}
	.st55{fill:#C1D82F;}
	.st56{fill:#8C9F22;}
	.st57{fill:#303030;}
	.st58{fill:#292929;}
	.st59{fill:#232323;}
	.st60{fill:#454545;}
	.st61{fill:#0D0D0D;}
	.st62{fill:#6D6E71;}
	.st63{fill:#414042;}
	.st64{fill:#141414;}
	.st65{fill:#808285;}
	.st66{fill:#BCBEC0;}
	.st67{fill:#939598;}
	.st68{opacity:0.88;fill:#F26630;enable-background:new    ;}
	.st69{fill:url(#SVGID_9_);}
	.st70{fill:url(#XMLID_10_);}
	.st71{fill:#434351;}
	.st72{fill:#6C6C75;}
	.st73{fill:#282827;}
	.st74{fill:#2A2B2A;}
	.st75{fill:#3D3D3D;}
	.st76{fill:#929497;}
	.st77{fill:#E6E7E8;}
	.st78{fill:url(#XMLID_11_);}
	.st79{fill:url(#XMLID_12_);}
	.st80{fill:#84340C;}
	.st81{fill:#8D8D8E;}
	.st82{fill:url(#SVGID_10_);}
	.st83{fill:url(#SVGID_11_);}
	.st84{fill:url(#SVGID_12_);}
	.st85{fill:#00AA4F;}
	.st86{opacity:0.21;}
	.st87{fill:#ED174F;}
	.st88{fill:url(#SVGID_13_);}
	.st89{opacity:0.2;}
	.st90{fill:url(#SVGID_14_);}
	.st91{clip-path:url(#SVGID_16_);}
	.st92{fill:none;stroke:#F4F4F4;stroke-width:3;stroke-miterlimit:10;}
	.st93{fill:#244199;}
</style>
<g id="Layer_2_1_">
</g>
<g id="Layer_7">
</g>
<g id="Layer_3">
</g>
<g id="Layer_4">
</g>
<g id="Layer_5">
</g>
<g id="Layer_6">
	
		<linearGradient id="SVGID_2_" gradientUnits="userSpaceOnUse" x1="308.9597" y1="317.9212" x2="362.9005" y2="220.5488" gradientTransform="matrix(1 0 0 -1 0 538)">
		<stop  offset="0" style="stop-color:#00AFEF"/>
		<stop  offset="1" style="stop-color:#00AFEF;stop-opacity:0"/>
	</linearGradient>
	<path class="st0" d="M203.7,277.6v180.5l29-16.8v-99.8c0-19.2,13.7-42.8,30.4-52.5l0,0c16.7-9.7,30.4-1.9,30.4,17.3v99.8l22-12.7
		v-99.8c0-19.2,13.7-42.8,30.4-52.5l0,0c16.7-9.7,30.4-1.9,30.4,17.3v99.8l22-12.7v-99.8c0-19.2,13.7-42.8,30.4-52.5l0,0
		c16.7-9.7,30.4-1.9,30.4,17.3v99.8l28.1-16.3V113.8L203.7,277.6z"/>
	<g>
		
			<linearGradient id="SVGID_3_" gradientUnits="userSpaceOnUse" x1="39.4332" y1="305.7348" x2="444.6451" y2="424.8425" gradientTransform="matrix(1 0 0 -1 0 538)">
			<stop  offset="0" style="stop-color:#00AFEF;stop-opacity:0"/>
			<stop  offset="0.4276" style="stop-color:#38C1F3;stop-opacity:0.4276"/>
			<stop  offset="0.8078" style="stop-color:#64CFF5;stop-opacity:0.8078"/>
			<stop  offset="1" style="stop-color:#75D4F6"/>
			<stop  offset="1" style="stop-color:#2CBDF2;stop-opacity:0.4016"/>
			<stop  offset="1" style="stop-color:#00AFEF;stop-opacity:0"/>
		</linearGradient>
		<path class="st1" d="M242,255l-136.3-78.5c-12-6.9-10.5-19.1,3.4-27.1l81.2-46.9c13.9-8,35-8.9,47-1.9l131.4,75.7
			c12,6.9-3.9,11.3-17.7,19.3l-81.2,46.9C255.9,250.4,254,262,242,255z"/>
		<g>
			<g>
				<polygon class="st2" points="243.7,231.3 130.7,166.1 130.7,154.6 243.7,219.7 				"/>
				<polygon class="st3" points="243.7,231.3 243.7,219.7 329.2,170.4 329.2,181.9 				"/>
				<polygon class="st4" points="243.7,219.7 130.7,154.6 216.2,105.3 329.2,170.4 				"/>
				<polygon class="st5" points="243.6,149.3 243.7,125.4 324.2,78.9 324.1,102.8 				"/>
				<polygon class="st6" points="243.6,149.3 135.8,87.1 135.8,63.1 243.7,125.4 				"/>
				<polygon class="st7" points="243.6,216.5 243.7,154.3 324.2,107.9 324.1,170 				"/>
				<polygon class="st8" points="243.6,216.5 135.8,154.3 135.8,92.1 243.7,154.3 				"/>
				<polygon class="st9" points="243.6,154.3 243.7,149.3 324.2,102.8 324.1,107.9 				"/>
				<polygon class="st10" points="243.6,154.3 135.8,92.2 135.8,87 243.7,149.3 				"/>
				<polygon class="st2" points="243.7,125.4 130.7,60.2 130.7,48.7 243.7,113.8 				"/>
				<polygon class="st3" points="243.7,125.4 243.7,113.8 328.1,65.1 328.1,76.6 				"/>
				<polygon class="st4" points="243.7,113.8 130.7,48.7 215.1,0 328.1,65.1 				"/>
				<polygon class="st11" points="215.1,13.5 149.2,51.5 142.3,47.4 215.1,5.4 				"/>
				<polygon class="st12" points="316.6,63.9 309.6,67.9 215.1,13.5 215.1,5.4 				"/>
				<polygon class="st13" points="309.6,67.9 243.7,105.9 149.2,51.5 215.1,13.5 				"/>
				<g>
					<polygon class="st14" points="143.4,76.1 143.4,84.9 178.7,105.3 178.7,104.6 144,84.6 144,76.4 					"/>
					<polygon class="st15" points="144,76.4 144,84.6 178.7,104.6 178.7,96.5 					"/>
					<polygon class="st16" points="149.1,87.5 152.5,89.5 150.3,80.1 146.9,78.1 					"/>
					<polygon class="st16" points="161.8,94.8 173.2,101.4 171.5,92.3 160,85.7 					"/>
				</g>
				<g>
					<polygon class="st14" points="200.1,108.8 200.1,117.7 235.4,138 235.4,137.3 200.7,117.3 200.7,109.2 					"/>
					<polygon class="st15" points="200.7,109.2 200.7,117.3 235.4,137.3 235.4,129.2 					"/>
					<polygon class="st16" points="205.9,120.3 209.2,122.2 207,112.8 203.6,110.9 					"/>
					<polygon class="st16" points="218.5,127.5 229.9,134.1 228.2,125 216.7,118.4 					"/>
				</g>
				<g>
					<polygon class="st14" points="303.7,99.1 303.7,107.9 268.4,128.3 268.4,127.6 303.1,107.6 303.1,99.5 					"/>
					<polygon class="st17" points="303.1,99.5 303.1,107.6 268.4,127.6 268.4,119.5 					"/>
					<polygon class="st16" points="297.9,110.6 294.6,112.5 296.8,103.1 300.2,101.2 					"/>
					<polygon class="st16" points="285.3,117.8 273.9,124.4 275.6,115.3 287.1,108.7 					"/>
				</g>
				<g>
					<polygon class="st18" points="243.7,162.4 175.7,123.2 175.7,173.3 243.6,212.4 					"/>
					<polygon class="st19" points="243.6,205.1 182,169.6 182,130.3 178.9,128.5 178.9,171.4 243.6,208.7 					"/>
					<polygon class="st15" points="243.7,165.9 182,130.3 182,169.6 243.6,205.1 					"/>
					<polygon class="st20" points="182,130.3 182,169.6 215.9,189.5 206.6,144.9 					"/>
				</g>
				<g>
					<polygon class="st21" points="243.7,162.4 243.6,212.4 318.5,169.4 318.5,119.3 					"/>
					<polygon class="st22" points="312.1,126.4 312.1,165.7 243.6,205.1 243.6,208.7 315.3,167.5 315.3,124.6 					"/>
					<polygon class="st17" points="243.7,165.9 243.6,205.1 312.1,165.7 312.1,126.4 					"/>
				</g>
			</g>
			<g>
				<g>
					<path class="st23" d="M269.4,57.5c-2.7-3.2-7.2-7.4-14.5-11.6c-14.5-8.4-29.2-10.4-29.9-10.5l-1.9-0.3l-1,1
						c-0.5,0.4-11.5,10.8-14.9,19.2c-3.3,8.3-2.7,17.8-2.7,18.2l0.1,1.5l2.5,0.1c0.7,0,17.1,0.4,31.5-1.6
						c14.5-1.9,32.4-8.3,33.2-8.6l1.7-0.6v-7.2L269.4,57.5z"/>
					<g>
						
							<radialGradient id="SVGID_4_" cx="2457.4751" cy="259.6467" r="74.2475" gradientTransform="matrix(0.7979 0.4607 0.7929 -0.4578 -1901.5115 -980.2189)" gradientUnits="userSpaceOnUse">
							<stop  offset="0" style="stop-color:#8D8E8F"/>
							<stop  offset="1" style="stop-color:#28292A"/>
						</radialGradient>
						<path class="st24" d="M252.6,40C238.4,31.9,224,29.9,224,29.9s-11.2,10.4-14.5,18.7c-3.3,8.2-2.6,17.8-2.6,17.8
							s16.5,0.4,30.8-1.5s32.3-8.4,32.3-8.4S266.7,48.2,252.6,40z"/>
						
							<linearGradient id="SVGID_5_" gradientUnits="userSpaceOnUse" x1="2136.6577" y1="930.466" x2="2136.6577" y2="880.2088" gradientTransform="matrix(0.866 0.5 1 -0.5774 -2525.9204 -492.3835)">
							<stop  offset="0" style="stop-color:#E5E2DF"/>
							<stop  offset="0" style="stop-color:#DDD9D6"/>
							<stop  offset="6.299578e-02" style="stop-color:#CECAC9"/>
							<stop  offset="0.1833" style="stop-color:#A7A3A6"/>
							<stop  offset="0.264" style="stop-color:#8A868C"/>
							<stop  offset="0.5225" style="stop-color:#F2F3F3"/>
							<stop  offset="0.5851" style="stop-color:#E4E4E5"/>
							<stop  offset="0.7052" style="stop-color:#BEBDBF"/>
							<stop  offset="0.8694" style="stop-color:#837F83"/>
							<stop  offset="0.8764" style="stop-color:#807C80"/>
							<stop  offset="1" style="stop-color:#D0D2D3"/>
							<stop  offset="1" style="stop-color:#A6A8AB"/>
						</linearGradient>
						<path class="st25" d="M273.1,55.9c-0.1-0.4-3.7-8.9-18.2-17.2S225.6,28.3,225,28.2l-1.9-0.3l-1,1
							c-0.5,0.4-11.5,10.8-14.9,19.2c-3.3,8.3-2.7,17.8-2.7,18.2l0.1,1.5l2.5,0.1c0.7,0,17.1,0.4,31.5-1.6
							c14.5-1.9,32.4-8.3,33.2-8.6l1.7-0.6L273.1,55.9z M212.5,48.8c2.6-6.4,10.3-14.4,13.1-17.2c3.9,0.8,13.5,3,23.3,8.2l-9.9,5.7
							l-12.3-7.1l-3.9,2.2l12.3,7.1l-5.1,2.9l-7.6-4.4l-3.9,2.2l7.6,4.4L210,62.4C210.1,58.9,210.6,53.6,212.5,48.8z M237.4,63.1
							c-8.3,1.1-17.5,1.4-23.5,1.5l16.2-9.4l7.6,4.4l3.9-2.2L234,53l5.1-2.9l12.3,7.1l3.9-2.2L243,47.8l9.9-5.7
							c9.1,5.6,12.9,11.2,14.2,13.5C262.3,57.2,248.5,61.6,237.4,63.1z"/>
					</g>
				</g>
			</g>
			<polygon class="st16" points="282.9,143.3 305.6,169.5 277.9,185.4 258,157.6 			"/>
		</g>
	</g>
	
		<linearGradient id="SVGID_6_" gradientUnits="userSpaceOnUse" x1="224.6688" y1="39.224" x2="533.7074" y2="517.3979" gradientTransform="matrix(1 0 0 -1 0 538)">
		<stop  offset="0" style="stop-color:#00AFEF;stop-opacity:0"/>
		<stop  offset="0.3413" style="stop-color:#00AFEF"/>
		<stop  offset="0.515" style="stop-color:#00AFEF"/>
		<stop  offset="0.7443" style="stop-color:#3FC3F3;stop-opacity:0.5273"/>
		<stop  offset="0.9126" style="stop-color:#66CFF5;stop-opacity:0.1802"/>
		<stop  offset="1" style="stop-color:#75D4F6;stop-opacity:0"/>
	</linearGradient>
	<polygon class="st26" points="135.8,474.6 0,396.2 635.2,25.4 770.9,103.8 	"/>
	<polygon class="st27" points="339.5,343.6 331.6,339.1 615.3,175.3 623.1,179.8 	"/>
	<polygon class="st28" points="623.1,179.8 623.1,192.6 339.5,356.4 339.5,343.6 	"/>
	<polygon class="st29" points="331.6,339.1 331.6,351.8 339.5,356.4 339.5,343.6 	"/>
	<polygon class="st27" points="211.5,269.8 203.7,265.2 487.4,101.5 495.2,106 	"/>
	<polygon class="st28" points="495.2,106 495.2,118.7 211.5,282.5 211.5,269.8 	"/>
	<polygon class="st29" points="203.7,265.2 203.7,278 211.5,282.5 211.5,269.8 	"/>
	
		<linearGradient id="SVGID_7_" gradientUnits="userSpaceOnUse" x1="444.7733" y1="239.1967" x2="498.7141" y2="141.8244" gradientTransform="matrix(1 0 0 -1 0 538)">
		<stop  offset="0" style="stop-color:#00AFEF"/>
		<stop  offset="1" style="stop-color:#00AFEF;stop-opacity:0"/>
	</linearGradient>
	<path class="st30" d="M339.5,356.3v180.5l29-16.8v-99.8c0-19.2,13.7-42.8,30.4-52.5l0,0c16.7-9.7,30.4-1.9,30.4,17.3v99.8l22-12.7
		v-99.8c0-19.2,13.7-42.8,30.4-52.5l0,0c16.7-9.7,30.4-1.9,30.4,17.3v99.8l22-12.7v-99.8c0-19.2,13.7-42.8,30.4-52.5l0,0
		c16.7-9.7,30.4-1.9,30.4,17.3V389l28.1-16.3V192.5L339.5,356.3z"/>
	<g>
		<path id="XMLID_1467_" class="st31" d="M407.4,286.1l146.9-84.8c4.3-2.5,4.3-8.7,0-11.2l-59.9-34.6c-2-1.2-4.5-1.2-6.5,0
			l-152.7,88.1c-4.3,2.5-4.3,8.7,0,11.2l52,30C389.2,286,397.4,291.7,407.4,286.1z"/>
		<polygon id="XMLID_1466_" class="st32" points="554.7,168.1 558.4,166 554.1,163.5 550.5,165.6 		"/>
		<polygon id="XMLID_1465_" class="st33" points="409.4,232.9 437.8,249.3 437.8,233.6 409.4,217.2 		"/>
		<polygon id="XMLID_1464_" class="st33" points="510,171.2 538.5,187.6 538.5,171.9 510,155.5 		"/>
		<g id="XMLID_1449_">
			<path id="XMLID_1463_" class="st34" d="M503.4,201.8c0,4.1,1.4,7,3.7,8.4c2.4,1.5,7.4,4.2,7.4,4.2l18.6-32.4c0,0-4.7-2.7-7.1-4.1
				c-2.4-1.4-5.7-1.2-9.3,0.9C509.3,183.2,503.4,193.4,503.4,201.8z"/>
			<path id="XMLID_1462_" d="M510.4,205.8c0,4.3,1.5,7.2,3.9,8.6c2.4,1.3,5.7,1.1,9.3-1c7.3-4.2,13.2-14.4,13.2-22.9
				c0-8.4-5.9-11.8-13.2-7.6C516.3,187.2,510.4,197.4,510.4,205.8z"/>
			<path id="XMLID_1450_" class="st35" d="M514.9,203.2c0,5.5,3.9,7.7,8.6,5c4.8-2.7,8.6-9.4,8.6-14.9s-3.9-7.7-8.6-5
				C518.8,191,514.9,197.7,514.9,203.2z M520.6,196.3c-0.6,0.9-1.4,1.3-1.6,1c-0.3-0.3,0-1.2,0.7-2.1c0.6-0.9,1.4-1.3,1.6-1
				C521.5,194.5,521.2,195.4,520.6,196.3z M524.9,191.3c0,0.5-0.6,1.3-1.4,1.8c-0.8,0.4-1.4,0.4-1.4-0.2c0-0.5,0.6-1.3,1.4-1.8
				C524.3,190.7,524.9,190.8,524.9,191.3z M528.2,191.9c-0.3,0.6-1,1-1.6,0.9s-0.9-0.7-0.7-1.3c0.3-0.6,1-1,1.6-0.9
				S528.4,191.3,528.2,191.9z M528.9,195.8c-0.5,0.3-0.9-0.2-0.9-1.1c0-0.9,0.4-1.8,0.9-2.1s0.9,0.2,0.9,1.1
				C529.8,194.6,529.4,195.5,528.9,195.8z M527.5,198.7c0.3-1,1-1.8,1.4-1.8s0.5,0.8,0.2,1.8s-1,1.8-1.4,1.8
				C527.2,200.5,527.2,199.7,527.5,198.7z M525.1,202.5c0.7-0.8,1.4-1,1.6-0.7c0.2,0.4-0.2,1.3-0.9,2.1s-1.4,1-1.6,0.7
				C524,204.2,524.4,203.3,525.1,202.5z M523.6,201.5c-1.6,0.9-2.9,0.2-2.9-1.7s1.3-4,2.9-5c1.6-0.9,2.9-0.2,2.9,1.7
				S525.1,200.6,523.6,201.5z M520.4,205.5c0.2-0.6,0.9-1.1,1.6-1.2c0.7-0.1,1.1,0.4,0.9,1c-0.2,0.6-0.9,1.1-1.6,1.2
				C520.6,206.6,520.2,206.1,520.4,205.5z M518.2,203.1c0.4-0.5,1-0.4,1.4,0.2c0.3,0.6,0.3,1.5-0.2,2c-0.4,0.5-1,0.4-1.4-0.2
				C517.7,204.5,517.8,203.6,518.2,203.1z M517.3,200.9c0-0.9,0.4-1.8,0.9-2.1s0.9,0.2,0.9,1.1c0,0.9-0.4,1.8-0.9,2.1
				S517.3,201.8,517.3,200.9z"/>
		</g>
		<g id="XMLID_1434_">
			<path id="XMLID_1448_" class="st34" d="M399.4,261.9c0,4.1,1.4,7,3.7,8.4c2.4,1.5,7.4,4.2,7.4,4.2l18.6-32.4c0,0-4.7-2.7-7.1-4.1
				c-2.4-1.4-5.7-1.2-9.3,0.9C405.3,243.3,399.4,253.5,399.4,261.9z"/>
			<path id="XMLID_1447_" d="M406.4,265.9c0,4.3,1.5,7.2,3.9,8.6c2.4,1.3,5.7,1.1,9.3-1c7.3-4.2,13.2-14.4,13.2-22.9
				c0-8.4-5.9-11.8-13.2-7.6C412.3,247.3,406.4,257.5,406.4,265.9z"/>
			<path id="XMLID_1435_" class="st35" d="M411,263.3c0,5.5,3.9,7.7,8.6,5c4.8-2.7,8.6-9.4,8.6-14.9s-3.9-7.7-8.6-5
				C414.8,251.1,411,257.8,411,263.3z M416.6,256.3c-0.6,0.9-1.4,1.3-1.6,1c-0.3-0.3,0-1.2,0.7-2.1c0.6-0.9,1.4-1.3,1.6-1
				C417.5,254.5,417.2,255.5,416.6,256.3z M421,251.4c0,0.5-0.6,1.3-1.4,1.8c-0.8,0.4-1.4,0.4-1.4-0.2c0-0.5,0.6-1.3,1.4-1.8
				C420.4,250.8,421,250.9,421,251.4z M424.2,252c-0.3,0.6-1,1-1.6,0.9s-0.9-0.7-0.7-1.3c0.3-0.6,1-1,1.6-0.9
				C424.2,250.8,424.5,251.4,424.2,252z M424.9,255.9c-0.5,0.3-0.9-0.2-0.9-1.1c0-0.9,0.4-1.8,0.9-2.1s0.9,0.2,0.9,1.1
				S425.4,255.6,424.9,255.9z M423.5,258.8c0.3-1,1-1.8,1.4-1.8s0.5,0.8,0.2,1.8s-1,1.8-1.4,1.8
				C423.3,260.6,423.2,259.8,423.5,258.8z M421.1,262.6c0.7-0.8,1.4-1,1.6-0.7c0.2,0.4-0.2,1.3-0.9,2.1c-0.7,0.8-1.4,1-1.6,0.7
				C420,264.3,420.4,263.3,421.1,262.6z M419.6,261.6c-1.6,0.9-2.9,0.2-2.9-1.7c0-1.8,1.3-4,2.9-5c1.6-0.9,2.9-0.2,2.9,1.7
				C422.4,258.5,421.2,260.7,419.6,261.6z M416.4,265.6c0.2-0.6,0.9-1.1,1.6-1.2s1.1,0.4,0.9,1s-0.9,1.1-1.6,1.2
				C416.7,266.7,416.2,266.2,416.4,265.6z M414.3,263.2c0.4-0.5,1-0.4,1.4,0.2s0.3,1.5-0.2,2c-0.4,0.5-1,0.4-1.4-0.2
				C413.8,264.5,413.8,263.7,414.3,263.2z M413.4,261c0-0.9,0.4-1.8,0.9-2.1c0.5-0.3,0.9,0.2,0.9,1.1s-0.4,1.8-0.9,2.1
				C413.8,262.4,413.4,261.9,413.4,261z"/>
		</g>
		
			<linearGradient id="XMLID_2_" gradientUnits="userSpaceOnUse" x1="551.8444" y1="392.1422" x2="370.3679" y2="289.0486" gradientTransform="matrix(1 0 0 -1 0 538)">
			<stop  offset="0" style="stop-color:#F47F32"/>
			<stop  offset="1" style="stop-color:#F26630"/>
		</linearGradient>
		<path id="XMLID_1433_" class="st36" d="M392.7,244.4c4.7-4.5,13.8-11.4,22.6-17.2c8.8-5.8,21.1-13.7,21.1-13.7l21.4-33.6
			l50.6-29.6l24.4,7.2l23-6.3c0,0,0.5,3.2,0.5,6.8c0,0.2-0.1,3.4-0.1,3.4L529.4,177c-1.6,0.2-3.5,0.8-5.7,2.1
			c-2,1.2-3.8,2.7-5.5,4.4l-91.7,53.3c-2.3-0.8-5.5-0.5-9.9,2.1c-4.1,2.3-7,5.6-9,8.9l-20,11.6v-7.2
			C387.7,252.3,388,248.9,392.7,244.4z"/>
		
			<linearGradient id="XMLID_3_" gradientUnits="userSpaceOnUse" x1="387.6508" y1="271.2019" x2="424.0101" y2="299.5992" gradientTransform="matrix(1 0 0 -1 0 538)">
			<stop  offset="0" style="stop-color:#F26630"/>
			<stop  offset="1" style="stop-color:#F47F32"/>
		</linearGradient>
		<path id="XMLID_1432_" class="st37" d="M403,260.2c0,0,1.6,0.4,1.7,0.7l-16.9,9.6l-0.1-11.2l19.9-11.5
			C403.7,254,403,260.2,403,260.2z"/>
		
			<linearGradient id="XMLID_4_" gradientUnits="userSpaceOnUse" x1="557.2594" y1="361.7355" x2="521.9787" y2="367.9298" gradientTransform="matrix(1 0 0 -1 0 538)">
			<stop  offset="0" style="stop-color:#F47F32"/>
			<stop  offset="1" style="stop-color:#F26630"/>
		</linearGradient>
		<path id="XMLID_1431_" class="st38" d="M556.3,161.8c0,0.2,0,0.4,0,0.6v0.1c0,0.3,0,0.5,0,0.8c0,0.1,0,0.1,0,0.2
			c0,0.3,0,0.6-0.1,0.8l0,0c0,0.3,0,0.6-0.1,0.9c0,0.1,0,0.1,0,0.2c0,0.3-0.1,0.6-0.1,0.9c0,0,0,0,0,0.1c0,0.3-0.1,0.6-0.1,0.8
			c0,0.1,0,0.1,0,0.2c0,0.3-0.1,0.6-0.1,0.9v0.1c0,0.3-0.1,0.5-0.1,0.8c0,0.1,0,0.1,0,0.2c0,0.3-0.1,0.5-0.2,0.8c0,0.1,0,0.1,0,0.1
			c0,0.2-0.1,0.5-0.2,0.7c0,0.1,0,0.1,0,0.2c-0.1,0.3-0.1,0.5-0.2,0.7c0,0.1,0,0.1,0,0.2c-0.1,0.2-0.1,0.4-0.2,0.6v0.1
			c-0.1,0.2-0.2,0.4-0.2,0.6c0,0,0,0.1-0.1,0.1c-0.1,0.2-0.2,0.3-0.3,0.5c0,0,0,0,0,0.1c-0.1,0.2-0.2,0.3-0.3,0.5l-0.1,0.1
			c-0.1,0.1-0.2,0.3-0.3,0.4c-2.7,2.6-14.9,12.6-14.9,12.6s-1.1-11.6-9.3-10.7l26.8-15.6C556.2,161.3,556.3,161.7,556.3,161.8z"/>
		
			<linearGradient id="XMLID_5_" gradientUnits="userSpaceOnUse" x1="429.5253" y1="295.9624" x2="511.7166" y2="343.4351" gradientTransform="matrix(1 0 0 -1 0 538)">
			<stop  offset="0" style="stop-color:#F26630"/>
			<stop  offset="1" style="stop-color:#F47F32"/>
		</linearGradient>
		<path id="XMLID_1430_" class="st39" d="M507.5,203.9l-73.2,42.7c-0.5-0.6-1.1-1.3-1.4-2.2c-0.9-2-2.6-6.3-6.4-7.6l91.7-53.3
			C512.3,189.6,507.5,204.1,507.5,203.9z"/>
		
			<linearGradient id="XMLID_6_" gradientUnits="userSpaceOnUse" x1="387.6408" y1="269.1" x2="404.6826" y2="269.1" gradientTransform="matrix(1 0 0 -1 0 538)">
			<stop  offset="0" style="stop-color:#F47F32"/>
			<stop  offset="1" style="stop-color:#F26630"/>
		</linearGradient>
		<path id="XMLID_1429_" class="st40" d="M403.8,267.7l-16.1,9.2l0-6.4l17-9.6C404.8,261.1,403.8,267.7,403.8,267.7z"/>
		
			<linearGradient id="XMLID_7_" gradientUnits="userSpaceOnUse" x1="434.2999" y1="311.35" x2="507.4999" y2="311.35" gradientTransform="matrix(1 0 0 -1 0 538)">
			<stop  offset="0" style="stop-color:#F47F32"/>
			<stop  offset="1" style="stop-color:#F26630"/>
		</linearGradient>
		<path id="XMLID_1428_" class="st41" d="M507.4,204.4v0.1c-0.1,0.3-0.2,0.6-0.3,0.9c0,0.1,0,0.1-0.1,0.2c-0.1,0.2-0.1,0.5-0.2,0.7
			v0.1c-0.1,0.3-0.1,0.5-0.2,0.7c0,0.1,0,0.1,0,0.2c-0.1,0.2-0.1,0.4-0.2,0.6l0,0c-0.1,0.2-0.1,0.4-0.1,0.6v0.1
			c0,0.2-0.1,0.3-0.1,0.4l0,0c0,0.1-0.1,0.3-0.1,0.4v0.1c0,0.1,0,0.2-0.1,0.3l0,0c0,0.1,0,0.1,0,0.2l0,0v0.1l-68.1,39.3l0,0l0,0
			c0,0,0,0-0.1,0l0,0c0,0-0.1-0.1-0.2-0.1l0,0c-0.1,0-0.1-0.1-0.2-0.1c0,0,0,0-0.1,0s-0.1-0.1-0.2-0.1c0,0-0.1,0-0.1-0.1
			c-0.1-0.1-0.2-0.1-0.3-0.2l0,0c-0.1-0.1-0.2-0.1-0.3-0.2l-0.1-0.1c-0.1-0.1-0.2-0.1-0.3-0.2c0,0-0.1,0-0.1-0.1
			c-0.1-0.1-0.2-0.2-0.4-0.3c0,0,0,0-0.1-0.1s-0.2-0.2-0.3-0.3l-0.1-0.1c-0.1-0.1-0.2-0.2-0.3-0.3l-0.1-0.1
			c-0.1-0.1-0.2-0.2-0.3-0.4l73.2-42.7C507.5,204.1,507.4,204.2,507.4,204.4z"/>
		<g id="XMLID_1417_">
			<g id="XMLID_1422_">
				<polygon id="XMLID_1427_" class="st42" points="502.6,158.4 482.2,170.2 479.8,190.8 500.4,178.9 478.9,191.4 481.5,169.7 
					502.7,157.5 515.8,166.7 515.8,170.1 515,170.5 515,167.1 				"/>
				
					<linearGradient id="XMLID_8_" gradientUnits="userSpaceOnUse" x1="5556.8848" y1="363.3" x2="5592.0664" y2="363.3" gradientTransform="matrix(-1 0 0 -1 6071.8472 538)">
					<stop  offset="0" style="stop-color:#333E49"/>
					<stop  offset="0.8011" style="stop-color:#26292D"/>
				</linearGradient>
				<polygon id="XMLID_1426_" class="st43" points="500.4,178.9 515,170.5 515,170.5 				"/>
				
					<linearGradient id="XMLID_9_" gradientUnits="userSpaceOnUse" x1="6390.5396" y1="3137.5657" x2="6390.5396" y2="3155.0095" gradientTransform="matrix(-0.866 0.5 0 -1.1547 6031.6069 608.3391)">
					<stop  offset="0" style="stop-color:#333E49"/>
					<stop  offset="0.8011" style="stop-color:#26292D"/>
				</linearGradient>
				<polygon id="XMLID_1425_" class="st44" points="479.8,190.8 482.2,170.2 502.6,158.4 515,167.1 515,170.5 500.4,178.9 				"/>
				<polygon id="XMLID_1424_" class="st45" points="479.8,190.8 482.2,170.2 502.6,158.4 515,167.1 515,170.5 500.4,178.9 				"/>
				<polygon id="XMLID_1423_" class="st46" points="499.1,160.5 502.6,158.4 515,167.1 515,170.5 505.9,175.7 				"/>
			</g>
			<g id="XMLID_1418_">
				<polygon id="XMLID_1421_" class="st42" points="476.4,173.6 460.5,182.8 441.6,212.9 440.1,213.7 459.9,182.2 477.4,172.1 
					474.6,193.8 442.5,212.4 473.8,194.3 				"/>
				<polygon id="XMLID_1420_" class="st45" points="460.5,182.8 476.4,173.6 473.8,194.3 442.5,212.4 441.6,212.9 				"/>
				<polygon id="XMLID_1419_" class="st46" points="464.4,180.5 476.4,173.6 473.8,194.3 471.3,195.8 				"/>
			</g>
		</g>
		<path id="XMLID_1416_" class="st47" d="M544.5,173.9c1.6-0.9,7.7-4.3,9.1-5.3c1.5-1,2.3-2.4,2.3-2.4s2.6-1,2.7,0.3
			c0.1,0.9,0.4,4.3-1.9,5.6c-2.3,1.3-11,6.4-12,7C543.3,179.8,542.9,174.8,544.5,173.9z"/>
		<g id="XMLID_1413_">
			<path id="XMLID_1415_" class="st32" d="M508.7,182.3l4.1-2.3c0.6-0.4,1.1-1.3,1.1-2.1v-0.6c0-0.8-0.5-1.2-1.1-0.8l-4.1,2.3
				c-0.6,0.4-1.1,1.3-1.1,2.1v0.6C507.6,182.3,508.1,182.7,508.7,182.3z"/>
			<path id="XMLID_1414_" class="st32" d="M469,205.3l4.1-2.3c0.6-0.4,1.1-1.3,1.1-2.1v-0.6c0-0.8-0.5-1.2-1.1-0.8l-4.1,2.3
				c-0.6,0.4-1.1,1.3-1.1,2.1v0.6C467.9,205.3,468.4,205.6,469,205.3z"/>
		</g>
		<g id="XMLID_1410_">
			<path id="XMLID_1412_" class="st48" d="M391.4,261.2v-4.3c0-3.9-2.6-4.4-2.7-4.4l-0.9-0.2v11L391.4,261.2z"/>
			<path id="XMLID_1411_" class="st49" d="M390.6,260.8l-2.1,1.2v-8.7c0,0,2.1,0.4,2.1,3.7C390.6,258.8,390.6,260.8,390.6,260.8z"/>
		</g>
		<path id="XMLID_1409_" class="st50" d="M381.9,170.1c0,1.8,2.5,4.7,5.6,6.5s5.6,1.7,5.6-0.1s-2.5-4.7-5.6-6.5
			S381.9,168.3,381.9,170.1z"/>
		<path class="st51" d="M338.5,214.9c1.2,1.4,2.5,2.6,4.2,3.7C340.9,217.5,339.7,216.3,338.5,214.9c-3.5,3.9-3.8,6.6-3.8,6.6v7.2
			v10.9v6.5l53,30.8v-6.5v-10.9v-7.2c0,0,0.1-0.9,0.8-2.4c-15-14.5-33.4-22.7-49.6-35.4C338.8,214.6,338.6,214.7,338.5,214.9z"/>
		
			<linearGradient id="SVGID_8_" gradientUnits="userSpaceOnUse" x1="338.9" y1="322.1" x2="436.3" y2="322.1" gradientTransform="matrix(1 0 0 -1 0 538)">
			<stop  offset="0" style="stop-color:#F26630"/>
			<stop  offset="1" style="stop-color:#CC5723"/>
		</linearGradient>
		<path class="st52" d="M384,181.9l-0.6,0.9c0,0-12.3,7.9-21.1,13.7c-8.8,5.8-17.9,12.6-22.6,17.2c-0.3,0.3-0.5,0.5-0.8,0.8
			c16.2,12.7,34.6,21,49.6,35.4c0.5-0.9,1.1-2,2.2-3.3c-0.4-0.5-1-0.9-1.8-0.9c0.8,0,1.3,0.4,1.8,0.9c0.6-0.7,1.2-1.4,2-2.1
			c4.7-4.5,13.8-11.4,22.6-17.2c8.2-5.4,19.5-12.6,21-13.6c-6.5-3.4-12.9-7.3-20.2-9.7C403.9,199.8,394,190.4,384,181.9z"/>
		<g>
			
				<rect x="382.7" y="196" transform="matrix(0.4987 -0.8668 0.8668 0.4987 20.4316 432.7383)" class="st53" width="3.2" height="5.4"/>
			<polygon class="st54" points="393.8,202.3 387.1,213.7 389.8,203.7 385.8,201.4 387.4,198.6 			"/>
			<polygon class="st55" points="389.3,196.8 388,199 384.6,197 385.9,194.8 			"/>
			<polygon class="st56" points="393.6,199.2 392.3,201.4 388,199 389.3,196.8 			"/>
			<polygon class="st53" points="394.8,202.9 393.2,205.7 388.6,203 390.2,200.2 			"/>
			<polygon class="st54" points="401.2,206.5 394.5,218 397.2,208 393.2,205.7 394.8,202.9 			"/>
			<polygon class="st55" points="396.7,201 395.4,203.2 392,201.3 393.3,199 			"/>
			
				<rect x="396.9" y="200.9" transform="matrix(0.5001 -0.866 0.866 0.5001 22.9948 446.4622)" class="st56" width="2.6" height="4.9"/>
			<path class="st57" d="M377.7,217.2l-10.2,5.9c-0.8,0.5-1.5,0.2-1.7-0.7l-2.1-12.1c-0.2-1.1,0.6-2.7,1.7-3.3l14.4-8.3
				c1.1-0.6,1.9,0.1,1.7,1.4l-2.1,14.5C379.3,215.7,378.6,216.8,377.7,217.2z"/>
			<path class="st58" d="M381,198.6l23.3,13.4l-0.2,0.7l-24.3-14C379.8,198.8,380.4,198.3,381,198.6z"/>
			<polygon class="st53" points="401.9,206.9 400.3,209.8 395.6,207.1 397.2,204.3 			"/>
			<polygon class="st54" points="408.2,210.6 401.6,222.1 404.3,212.1 400.3,209.8 401.9,206.9 			"/>
			<polygon class="st55" points="403.8,205.1 402.5,207.3 399.1,205.3 400.3,203.1 			"/>
			
				<rect x="404" y="205" transform="matrix(0.5002 -0.8659 0.8659 0.5002 22.9782 454.6239)" class="st56" width="2.6" height="4.9"/>
			<path class="st59" d="M399.8,234.8l-8,4.6c-0.5,0.3-0.9,0.1-0.9-0.5v-4.5l9.8-5.7v4.5C400.7,233.8,400.3,234.5,399.8,234.8z"/>
			<path d="M391.2,235.2l-19.9-10.6v2.9c0,0.3,0.1,0.5,0.3,0.6l19.6,11.3V235.2z"/>
			<polygon class="st60" points="365.4,207.1 388.6,220.5 403,212.2 379.8,198.8 			"/>
			<path class="st59" d="M366.3,223.3l23.2,13.4l-0.5-0.8l-23.2-13.4C365.8,222.5,365.9,223,366.3,223.3z"/>
			<path class="st59" d="M388.6,220.5l-23.2-13.4c-2,1.3-1.7,3.3-1.7,3.3l23.2,13.4L388.6,220.5z"/>
			<path class="st61" d="M400.9,230.6l-10.2,5.9c-0.8,0.5-1.5,0.2-1.7-0.7l-2.1-12.1c-0.2-1.1,0.6-2.7,1.7-3.3l14.4-8.3
				c1.1-0.6,1.9,0.1,1.7,1.4l-2.1,14.5C402.5,229.1,401.8,230.2,400.9,230.6z"/>
			<path class="st60" d="M403.7,214.3c0,1-0.7,2.1-1.5,2.6s-1.5,0.1-1.5-0.9s0.7-2.1,1.5-2.6C403,213,403.7,213.4,403.7,214.3z"/>
			<path class="st60" d="M401.8,228c0,0.6-0.4,1.4-1,1.7c-0.5,0.3-1,0.1-1-0.6c0-0.6,0.4-1.4,1-1.7
				C401.3,227.2,401.8,227.4,401.8,228z"/>
			<path class="st60" d="M391.9,233.7c0,0.6-0.4,1.4-1,1.7c-0.5,0.3-1,0.1-1-0.6c0-0.6,0.4-1.4,1-1.7
				C391.5,232.9,391.9,233.1,391.9,233.7z"/>
			<path class="st60" d="M390.9,221.7c0,1-0.7,2.1-1.5,2.6s-1.5,0.1-1.5-0.9s0.7-2.1,1.5-2.6C390.3,220.4,390.9,220.8,390.9,221.7z"
				/>
			<path class="st62" d="M376.8,198L376.8,198L376.8,198L376.8,198c-0.3-0.2-0.8-0.2-1.2,0.1l-6,3.4c-1,0.6-1.8,1.9-1.8,3.1v1.1
				l23.2,13.4l9-7.7L376.8,198z"/>
			<path class="st63" d="M392.9,214.9l6-3.4c1-0.6,1.8-0.1,1.8,1v1.1l-9.5,5.5V218C391.1,216.8,391.9,215.5,392.9,214.9z"/>
			<path class="st64" d="M396.8,223.3c0,0.6-0.5,1.4-1,1.7c-0.6,0.3-1,0.1-1-0.6c0-0.6,0.5-1.4,1-1.7
				C396.4,222.4,396.8,222.7,396.8,223.3z"/>
			<g>
				<path class="st55" d="M395.6,222.2l-1-0.6l-0.8-3.8c0-0.8,0.6-1.9,1.3-2.3l2.8-1.6l1,0.6L395.6,222.2z"/>
				<path class="st55" d="M398.5,221.2l-1.7-1l2-4.8c0.5-0.9,1.4-1.4,1.9-1.1l2,1.1L398.5,221.2z"/>
				<path class="st55" d="M404,218.4l-1-0.6l0,0l0,0l0,0c-0.2-0.1-0.6-0.1-0.9,0.1l-3.7,3v2.8L404,218.4z"/>
				<polygon class="st55" points="402.7,224.6 401.7,224 398.5,223.5 396.8,226.5 399.7,229.6 400.7,230.2 				"/>
				<path class="st55" d="M394.6,227.7l2.5-1.4l0.8,3.7c0,0.8-0.6,1.9-1.3,2.3l-1.8,2.2l-1-0.6L394.6,227.7z"/>
				<path class="st55" d="M393.1,226.7l1.7,1l-2,4.8c-0.5,0.9-1.4,1.4-1.9,1.1l-2-1.1L393.1,226.7z"/>
				<path class="st55" d="M393.4,224.9l-1.1-0.6l-4.2,1.6v3.2c0,0.4,0.1,0.7,0.4,0.8l0,0l1.1,0.6l0.1-1.1l0,0L393.4,224.9z"/>
				<path class="st55" d="M392.9,218.9l-2,5.6l-1-0.6c-0.5-0.3-0.5-1.3,0-2.2l2-3.4L392.9,218.9z"/>
				<path class="st56" d="M398,220.8l-2.5,1.4l-0.8-3.8c0-0.8,0.6-1.9,1.3-2.3l2.8-1.6L398,220.8z"/>
				<path class="st56" d="M399.3,221.7l-1.7-1l2-4.8c0.5-0.9,1.4-1.4,1.9-1.1l2,1.1L399.3,221.7z"/>
				<path class="st56" d="M399.4,224.4v-2.8l3.7-3c0.7-0.4,1.3-0.1,1.3,0.8v3.2L399.4,224.4z"/>
				<path class="st56" d="M397.8,227.1l1.7-3l3.2,0.5c0.5,0.3,0.5,1.3,0,2.2l-2,3.4L397.8,227.1z"/>
				<path class="st56" d="M395.6,228.3l2.5-1.4l0.8,3.8c0,0.8-0.6,1.9-1.3,2.3l-2.8,1.6L395.6,228.3z"/>
				<path class="st56" d="M394.1,227.3l1.7,1l-2,4.8c-0.5,0.9-1.4,1.4-1.9,1.1l-2-1.1L394.1,227.3z"/>
				<path class="st56" d="M394.2,224.6v2.8l-3.7,3c-0.7,0.4-1.3,0.1-1.3-0.8v-3.2L394.2,224.6z"/>
				<path class="st56" d="M395.8,222l-1.7,3l-3.2-0.5c-0.5-0.3-0.5-1.3,0-2.2l2-3.4L395.8,222z"/>
				<path class="st65" d="M400.5,222.4c0,2.3-1.6,5.2-3.6,6.3c-2,1.2-3.6,0.2-3.6-2.1s1.6-5.2,3.6-6.3
					C398.9,219.1,400.5,220.1,400.5,222.4z"/>
				<path class="st66" d="M399.9,222.8c0,1.9-1.4,4.3-3,5.2c-1.1,0.6-2,0.5-2.5-0.1c0.6,0.4,1.3,0.4,2.2-0.2c1.7-1,3-3.3,3-5.2
					c0-0.7-0.2-1.2-0.5-1.6C399.6,221.2,399.9,221.9,399.9,222.8z"/>
				<path class="st67" d="M399.6,222.5c0,1.9-1.3,4.3-3,5.2c-0.9,0.5-1.7,0.5-2.2,0.2c-0.3-0.4-0.5-0.9-0.5-1.6c0-1.9,1.3-4.3,3-5.2
					c0.9-0.5,1.7-0.5,2.2-0.2C399.4,221.2,399.6,221.8,399.6,222.5z"/>
				<g>
					<path class="st55" d="M397.8,224.2l0.3-0.6l-0.6-0.3l0,0c-0.2-0.1-0.4-0.1-0.7,0.1c-0.6,0.3-1,1.1-1,1.7c0,0.3,0.1,0.5,0.2,0.6
						l0,0l0,0l0.7,0.4l0.4-0.7C397.5,225.1,397.7,224.7,397.8,224.2z"/>
					<path class="st56" d="M398.5,224.3c0,0.6-0.5,1.4-1,1.7c-0.6,0.3-1,0.1-1-0.6c0-0.6,0.5-1.4,1-1.7S398.5,223.6,398.5,224.3z"/>
				</g>
			</g>
			<polygon class="st61" points="365.8,222.5 389,235.9 387,223.8 363.7,210.4 			"/>
			<polygon class="st53" points="361.6,221.7 356.9,219 364.2,206.4 368.9,209 			"/>
			<polygon class="st54" points="368.9,209 371,210.3 369.3,213.7 371,225.5 361.6,221.7 			"/>
			<polygon class="st53" points="368.7,225.8 364,223.1 371.3,210.5 376,213.1 			"/>
			<polygon class="st54" points="376,213.1 378.1,214.4 376.4,217.8 378.1,229.6 368.7,225.8 			"/>
			<polygon class="st53" points="375.8,229.8 371.1,227.1 378.4,214.5 383.1,217.2 			"/>
			<polygon class="st54" points="383.1,217.2 385.2,218.4 383.5,221.8 385.2,233.7 375.8,229.8 			"/>
			<polygon class="st56" points="379.2,219.2 380.8,220.1 377.3,226.2 375.7,225.3 			"/>
			
				<rect x="372.2" y="219.2" transform="matrix(0.5007 -0.8656 0.8656 0.5007 -3.9467 435.7175)" class="st55" width="7" height="4.1"/>
			<polygon class="st56" points="372.1,215.1 373.7,216 370.2,222.1 368.6,221.2 			"/>
			
				<rect x="365.1" y="215.1" transform="matrix(0.4995 -0.8663 0.8663 0.4995 -3.6316 428.0467)" class="st55" width="7" height="4.1"/>
			<polygon class="st56" points="365,211 366.6,211.9 363.1,218 361.5,217.1 			"/>
			
				<rect x="358" y="210.9" transform="matrix(0.5003 -0.8659 0.8659 0.5003 -3.7523 419.4909)" class="st55" width="7" height="4.1"/>
			<g>
				<path class="st66" d="M378.4,198.4l3.1-1.8c0.4-0.2,0.8-0.2,1.2,0l-2.9-1.7l0,0c-0.4-0.2-0.9-0.3-1.3,0l-3.1,1.8v3.1l2.4-1.4
					l0.6,0.4L378.4,198.4L378.4,198.4z"/>
				<path class="st65" d="M378.4,198.4v3.1l2.4-1.4l2.1,1.2l0.6-0.3v-3.3c0-1-1.1-1.6-2-1.1L378.4,198.4z"/>
				<polygon class="st67" points="378.4,201.6 375.4,199.9 375.4,196.7 378.4,198.4 				"/>
			</g>
			<g>
				<path class="st66" d="M382.7,200.9l3.1-1.8c0.4-0.2,0.9-0.2,1.2-0.1l-2.9-1.7l0,0c-0.4-0.2-0.9-0.3-1.3,0l-3.1,1.8v3.1l2.4-1.4
					l0.6,0.4L382.7,200.9L382.7,200.9z"/>
				<path class="st65" d="M382.7,200.9v3.1l2.4-1.4l2.1,1.2l0.6-0.3v-3.3c0-1-1.1-1.6-2-1.1L382.7,200.9z"/>
				<polygon class="st67" points="382.7,204.1 379.7,202.3 379.7,199.2 382.7,200.9 				"/>
			</g>
			<g>
				<path class="st66" d="M386.8,203.3l3.1-1.8c0.4-0.2,0.8-0.2,1.2,0l-2.9-1.7l0,0c-0.4-0.2-0.9-0.3-1.3,0l-3.1,1.8v3.1l2.4-1.4
					l0.6,0.4L386.8,203.3L386.8,203.3z"/>
				<path class="st65" d="M386.8,203.3v3.1l2.4-1.4l2.1,1.2l0.6-0.3v-3.3c0-1-1.1-1.6-2-1.1L386.8,203.3z"/>
				<polygon class="st67" points="386.8,206.4 383.8,204.7 383.8,201.6 386.8,203.3 				"/>
			</g>
			<g>
				<path class="st66" d="M390.9,205.7l3.1-1.8c0.4-0.2,0.8-0.2,1.2-0.1l-2.9-1.7l0,0c-0.4-0.2-0.9-0.3-1.3,0l-3.1,1.8v3.1l2.4-1.4
					l0.6,0.4L390.9,205.7L390.9,205.7z"/>
				<path class="st65" d="M390.9,205.7v3.1l2.4-1.4l2.1,1.2l0.6-0.3V205c0-1-1.1-1.6-2-1.1L390.9,205.7z"/>
				<polygon class="st67" points="390.9,208.8 387.9,207.1 387.9,204 390.9,205.7 				"/>
			</g>
			<g>
				<path class="st66" d="M395,208l3.1-1.8c0.4-0.2,0.9-0.2,1.2,0l-2.9-1.7l0,0c-0.4-0.2-0.9-0.3-1.3,0l-3.1,1.8v3.1l2.4-1.4
					l0.6,0.4L395,208L395,208z"/>
				<path class="st65" d="M395,208v3.1l2.4-1.4l2.1,1.2l0.6-0.3v-3.3c0-1-1.1-1.6-2-1.1L395,208z"/>
				<polygon class="st67" points="395,211.2 392,209.4 392,206.3 395,208 				"/>
			</g>
			<g>
				<path class="st56" d="M371.4,198.9v2.1l0,0c0,0.4,0.3,0.8,0.8,1.1c1,0.6,2.7,0.6,3.7,0c0.5-0.3,0.8-0.7,0.8-1.1v-2.1H371.4z"/>
				<path class="st55" d="M375.9,200c-1,0.6-2.7,0.6-3.7,0s-1-1.6,0-2.1c1-0.6,2.7-0.6,3.7,0C376.9,198.4,376.9,199.4,375.9,200z"/>
			</g>
			<g>
				<path class="st56" d="M376.1,201.6v2.1l0,0c0,0.4,0.3,0.8,0.8,1.1c1,0.6,2.7,0.6,3.7,0c0.5-0.3,0.8-0.7,0.8-1.1v-2.1H376.1z"/>
				<path class="st55" d="M380.6,202.7c-1,0.6-2.7,0.6-3.7,0s-1-1.6,0-2.1c1-0.6,2.7-0.6,3.7,0C381.7,201.1,381.7,202.1,380.6,202.7
					z"/>
			</g>
			<g>
				<path class="st56" d="M380.9,204.4v2.1l0,0c0,0.4,0.3,0.8,0.8,1.1c1,0.6,2.7,0.6,3.7,0c0.5-0.3,0.8-0.7,0.8-1.1v-2.1H380.9z"/>
				<path class="st55" d="M385.4,205.5c-1,0.6-2.7,0.6-3.7,0s-1-1.6,0-2.1c1-0.6,2.7-0.6,3.7,0C386.5,203.9,386.5,204.9,385.4,205.5
					z"/>
			</g>
			<g>
				<path class="st56" d="M385.7,207.2v2.1l0,0c0,0.4,0.3,0.8,0.8,1.1c1,0.6,2.7,0.6,3.7,0c0.5-0.3,0.8-0.7,0.8-1.1v-2.1H385.7z"/>
				<path class="st55" d="M390.2,208.2c-1,0.6-2.7,0.6-3.7,0s-1-1.6,0-2.1c1-0.6,2.7-0.6,3.7,0C391.3,206.7,391.3,207.6,390.2,208.2
					z"/>
			</g>
			<g>
				<path class="st56" d="M390.6,210v2.1l0,0c0,0.4,0.3,0.8,0.8,1.1c1,0.6,2.7,0.6,3.7,0c0.5-0.3,0.8-0.7,0.8-1.1V210H390.6z"/>
				<path class="st55" d="M395.1,211c-1,0.6-2.7,0.6-3.7,0s-1-1.6,0-2.1c1-0.6,2.7-0.6,3.7,0S396.1,210.4,395.1,211z"/>
			</g>
			<g>
				<path class="st66" d="M371.5,199.2l-2.9,1.7c-1,0.6-1.8,1.9-1.8,3.1v3.5l3,1.7l1.1-5l3.6-3.3L371.5,199.2z"/>
				<path class="st65" d="M374.5,200.9l-2.9,1.7c-1,0.6-1.8,1.9-1.8,3.1v3.5l2.2-1.2v-1.1c0-0.8,0.4-1.6,1.2-2l1.4-0.8L374.5,200.9z
					"/>
			</g>
			<g>
				<path class="st66" d="M375.6,201.6l-2.9,1.7c-1,0.6-1.8,1.9-1.8,3.1v3.5l3,1.7l1.1-5l3.6-3.3L375.6,201.6z"/>
				<path class="st65" d="M378.6,203.3l-2.9,1.7c-1,0.6-1.8,1.9-1.8,3.1v3.5l2.2-1.2v-1.1c0-0.8,0.5-1.6,1.2-2l1.4-0.8L378.6,203.3z
					"/>
			</g>
			<g>
				<path class="st66" d="M379.7,203.9l-2.9,1.7c-1,0.6-1.8,1.9-1.8,3.1v3.5l3,1.7l1.1-5l3.6-3.3L379.7,203.9z"/>
				<path class="st65" d="M382.7,205.6l-2.9,1.7c-1,0.6-1.8,1.9-1.8,3.1v3.5l2.2-1.2v-1.1c0-0.8,0.5-1.6,1.2-2l1.4-0.8L382.7,205.6z
					"/>
			</g>
			<g>
				<path class="st66" d="M383.9,206.3L381,208c-1,0.6-1.8,1.9-1.8,3.1v3.5l3,1.7l1.1-5l3.6-3.3L383.9,206.3z"/>
				<path class="st65" d="M386.8,208l-2.9,1.7c-1,0.6-1.8,1.9-1.8,3.1v3.5l2.2-1.2V214c0-0.8,0.5-1.6,1.2-2l1.4-0.8L386.8,208z"/>
			</g>
			<g>
				<path class="st66" d="M388,208.7l-2.9,1.7c-1,0.6-1.8,1.9-1.8,3.1v3.5l3,1.7l1.1-5l3.6-3.3L388,208.7z"/>
				<path class="st65" d="M390.9,210.4l-2.9,1.7c-1,0.6-1.8,1.9-1.8,3.1v3.5l2.2-1.2v-1.1c0-0.8,0.5-1.6,1.2-2l1.4-0.8L390.9,210.4z
					"/>
			</g>
		</g>
		<path class="st68" d="M384.4,181.3l-0.6,0.9c0,0-12.3,7.9-21.1,13.7c-8.8,5.8-17.9,12.6-22.6,17.2c-0.3,0.3-0.5,0.5-0.8,0.8
			c16.2,12.7,34.6,21,49.6,35.4c0.5-0.9,1.1-2,2.2-3.3c-0.4-0.5-1-0.9-1.8-0.9c0.8,0,1.3,0.4,1.8,0.9c0.6-0.7-4.4-6.6,0.9-17.9
			c5.1-10.8-7.1-17.6,2.7-26.4c7.3-6.6,40.4,12.4,41.9,11.4c-6.5-3.4-12.9-7.3-20.2-9.7C404.3,199.2,394.5,189.8,384.4,181.3z"/>
		<polygon id="XMLID_1408_" class="st5" points="383.4,182.7 404.8,149.1 457.9,180 436.4,213.5 		"/>
		<g>
			
				<linearGradient id="SVGID_9_" gradientUnits="userSpaceOnUse" x1="515.9954" y1="413.0878" x2="353.9153" y2="298.0376" gradientTransform="matrix(1 0 0 -1 0 538)">
				<stop  offset="0" style="stop-color:#F26630"/>
				<stop  offset="1" style="stop-color:#CC5723"/>
			</linearGradient>
			<path class="st69" d="M502.8,120.5l-23,6.3l-24.4-7.2l-50.6,29.6l-20.5,32.1c1.3,0.9,2.6,1.7,3.9,2.6c-1.3-0.9-2.6-1.7-3.9-2.6
				l-0.4,0.7c10.1,8.5,19.9,18,32.1,22c7.3,2.4,13.7,6.3,20.2,9.7c0.1-0.1,0.2-0.1,0.2-0.1l1.1-1.7c-0.1-0.1-0.3-0.2-0.6-0.2
				c0.3,0,0.5,0.1,0.6,0.2l20.3-31.9l50.6-29.6l24.4,7.2l23-6.3L502.8,120.5z"/>
			
				<linearGradient id="XMLID_10_" gradientUnits="userSpaceOnUse" x1="521.7695" y1="404.9534" x2="359.6894" y2="289.9031" gradientTransform="matrix(1 0 0 -1 0 538)">
				<stop  offset="0" style="stop-color:#F26630"/>
				<stop  offset="1" style="stop-color:#CC5723"/>
			</linearGradient>
			<path id="XMLID_1407_" class="st70" d="M339.7,213.6l53,30.8c-4.7,4.5-5,7.9-5,7.9v7.2v10.9v6.5l-53-30.8v-6.5v-10.9v-7.2
				C334.7,221.5,335,218.1,339.7,213.6z"/>
		</g>
		<g id="XMLID_1372_">
			<g id="XMLID_1402_">
				<path id="XMLID_1404_" class="st71" d="M460.5,122l46.1,26.8l21.2,6.3l-46.1-26.8L460.5,122z M466.6,124.7l17.9,5.3l40.5,23.5
					l-18.1-5.4L466.6,124.7z"/>
				<polygon id="XMLID_1403_" class="st72" points="484.5,129.9 525,153.5 506.9,148.1 466.6,124.7 				"/>
			</g>
			<g id="XMLID_1383_">
				<g id="XMLID_1397_">
					<g id="XMLID_1399_">
						<path id="XMLID_1401_" class="st73" d="M334.7,234.4l53,30.6c0,0-3,3.1-3,5.3c0,1.2,0.1,2.1,0.6,2.4
							c-2.5-1.4-52.6-30.3-53-30.6c-0.5-0.3-0.6-1.2-0.6-2.4C331.7,237.5,334.7,234.4,334.7,234.4z"/>
						<path id="XMLID_1400_" class="st32" d="M334.7,234.4l53,30.6c0,0-3,3.1-3,5.3c0,1.2-53-29.4-53-30.6
							C331.7,237.5,334.7,234.4,334.7,234.4z"/>
					</g>
					<path id="XMLID_1398_" class="st47" d="M387.7,264.9c0,0,8.4-2.8,10.9-3.6c1.8-0.6,0.5,4.9-1.4,6s-6.8,3.7-9.5,5
						c-1.1,0.5-1.8,0.7-2.3,0.5l0,0c0,0,0,0-0.1,0c-0.5-0.3-0.6-1.2-0.6-2.4C384.7,268,387.7,264.9,387.7,264.9z"/>
				</g>
				<g id="XMLID_1384_">
					<polygon id="XMLID_1396_" class="st74" points="334.7,232.6 387.7,263.3 387.7,252.3 334.7,221.6 					"/>
					<polygon id="XMLID_1395_" class="st75" points="352.9,235 369.6,244.7 369.6,242.9 352.9,233.2 					"/>
					<polygon id="XMLID_1394_" class="st75" points="352.9,238.4 369.6,248.1 369.6,246.4 352.9,236.7 					"/>
					<polygon id="XMLID_1393_" class="st75" points="352.9,241.9 369.6,251.6 369.6,249.9 352.9,240.2 					"/>
					<g id="XMLID_1386_">
						<g id="XMLID_1390_">
							<polygon id="XMLID_1392_" class="st76" points="371.1,252.8 387.2,262.1 387.2,253 371.1,243.7 							"/>
							<polygon id="XMLID_1391_" class="st77" points="375.1,252.2 387.2,261.2 387.2,253 371.1,243.7 							"/>
						</g>
						<g id="XMLID_1387_">
							<polygon id="XMLID_1389_" class="st76" points="335.4,231.9 351.6,241.3 351.6,232.2 335.4,222.9 							"/>
							<polygon id="XMLID_1388_" class="st77" points="339.5,231.4 351.6,240.4 351.6,232.2 335.4,222.9 							"/>
						</g>
					</g>
					<polygon id="XMLID_1385_" class="st76" points="354.6,242.6 367.5,250.1 367.5,245.5 354.6,238 					"/>
				</g>
			</g>
			<g id="XMLID_1376_">
				<g id="XMLID_1378_">
					
						<linearGradient id="XMLID_11_" gradientUnits="userSpaceOnUse" x1="5617.7388" y1="342.8" x2="5685.1055" y2="342.8" gradientTransform="matrix(-1 0 0 -1 6071.8472 538)">
						<stop  offset="0" style="stop-color:#39515C"/>
						<stop  offset="1" style="stop-color:#333E49"/>
					</linearGradient>
					<path id="XMLID_1382_" class="st78" d="M386.7,183l42,24.4L386.7,183z"/>
					
						<linearGradient id="XMLID_12_" gradientUnits="userSpaceOnUse" x1="5641.2793" y1="343.0001" x2="5671.3447" y2="382.4744" gradientTransform="matrix(-1 0 0 -1 6071.8472 538)">
						<stop  offset="0" style="stop-color:#39515C"/>
						<stop  offset="1" style="stop-color:#333E49"/>
					</linearGradient>
					<polygon id="XMLID_1381_" class="st79" points="406.2,152.5 454.1,180.3 434.6,210.9 428.7,207.4 386.7,183 					"/>
					<polygon id="XMLID_1380_" class="st72" points="406.2,152.5 454.1,180.3 434.6,210.9 428.7,207.4 386.7,183 					"/>
					<polygon id="XMLID_1379_" class="st80" points="454.1,180.3 406.2,152.5 386.7,183 386.1,182.6 406,151.4 455.2,180.1 
						435.3,211.3 428.7,207.4 434.6,210.9 					"/>
				</g>
				<polygon id="XMLID_1377_" class="st81" points="406.2,152.5 420,160.5 419.3,163.9 387.1,182.5 				"/>
			</g>
			<g id="XMLID_1373_">
				<polygon id="XMLID_1375_" class="st50" points="406,204 424.3,214.6 430.2,211.1 411.9,200.6 				"/>
				<polygon id="XMLID_1374_" class="st50" points="380,189.1 398.3,199.7 404.2,196.2 385.9,185.7 				"/>
			</g>
		</g>
		<path id="XMLID_1371_" class="st50" d="M445.3,208.5h2.4c0-0.2-0.1-0.3-0.1-0.5c0-1.8,2.5-1.9,5.6-0.1c3.1,1.8,5.6,4.7,5.6,6.5
			s-2.5,1.9-5.6,0.1c-2.1-1.2-4-3-4.9-4.6h-3c0,0-0.5-0.1-0.5-0.7S445.3,208.5,445.3,208.5z"/>
		<g>
			<g>
				
					<radialGradient id="SVGID_10_" cx="5369.3633" cy="-246.476" r="43.7757" gradientTransform="matrix(0.866 0.5 0.8606 -0.4969 -3957.5125 -2671.3525)" gradientUnits="userSpaceOnUse">
					<stop  offset="0" style="stop-color:#FFFFFF"/>
					<stop  offset="1" style="stop-color:#F1F1F2"/>
				</radialGradient>
				<path class="st82" d="M457.5,154.9c-2.1-0.2-4.1-0.6-5.8-1.4c-5.4-2.4-6.4-6.8-2.4-9.9c4.1-3.1,11.7-3.7,17.1-1.3
					c1.7,0.7,3,1.7,3.9,2.9l5.6-1.4c-1.2-1.7-3.2-3.2-5.8-4.3c-8-3.5-19.5-2.7-25.6,2c-2.7,2.1-3.9,4.6-3.6,7l-6.4,3.4l9.3,1.6
					c1.1,1,2.6,1.9,4.3,2.7c2.5,1.1,5.5,1.8,8.7,2.1L457.5,154.9z"/>
				
					<radialGradient id="SVGID_11_" cx="5369.3633" cy="-246.476" r="43.7757" gradientTransform="matrix(0.866 0.5 0.8606 -0.4969 -3957.5125 -2671.3525)" gradientUnits="userSpaceOnUse">
					<stop  offset="0" style="stop-color:#FFFFFF"/>
					<stop  offset="1" style="stop-color:#F1F1F2"/>
				</radialGradient>
				<path class="st83" d="M463.6,145.8c-2.1-1.5-5.7-1.7-8.2-0.5s-2.9,3.3-0.8,4.8s5.7,1.7,8.2,0.5
					C465.3,149.4,465.7,147.3,463.6,145.8z"/>
			</g>
		</g>
	</g>
	<g>
		<path class="st3" d="M221.7,261.1c0,0-0.7,0.6-2.5,0.6s-2.5-0.6-2.5-0.6v-62.3h5V261.1z"/>
		<g>
			
				<linearGradient id="SVGID_12_" gradientUnits="userSpaceOnUse" x1="-885.1022" y1="7560.1191" x2="-953.5245" y2="7527.3267" gradientTransform="matrix(-1 0 0 1 -703.3423 -7338.9277)">
				<stop  offset="1.342147e-03" style="stop-color:#C1D82F"/>
				<stop  offset="1" style="stop-color:#C1D82F;stop-opacity:0"/>
			</linearGradient>
			<polygon class="st84" points="230.9,213.4 273.3,197.7 252.1,167.1 218.9,196.5 			"/>
			<polygon class="st85" points="214.9,157.2 214.9,207 240.1,221.5 240.1,171.7 			"/>
			<polygon class="st3" points="240.1,221.4 227.5,228.7 227.5,178.9 240.1,171.6 			"/>
			<polygon class="st2" points="227.5,228.7 202.3,214.2 202.3,164.4 227.5,178.9 			"/>
			<g class="st86">
				<path class="st87" d="M218.2,195.2c-1,0-2-0.3-3.1-1c-4-2.3-7.2-7.9-7.2-12.5c0-3,1.4-4.9,3.7-4.9c1,0,2,0.3,3.1,1
					c4,2.3,7.2,7.9,7.2,12.5C222,193.4,220.5,195.2,218.2,195.2z"/>
				<path class="st87" d="M211.6,177.3L211.6,177.3c0.9,0,1.9,0.3,3,0.9c3.9,2.2,7.1,7.7,7.1,12.2c0,2.8-1.3,4.5-3.3,4.5
					c-0.9,0-1.9-0.3-3-0.9c-3.9-2.2-7.1-7.7-7.1-12.2C208.2,178.9,209.5,177.3,211.6,177.3 M211.6,176.5c-2.4,0-4.1,1.9-4.1,5.3
					c0,4.7,3.3,10.4,7.4,12.8c1.2,0.7,2.3,1,3.3,1c2.4,0,4.1-1.9,4.1-5.3c0-4.7-3.3-10.4-7.4-12.8
					C213.7,176.8,212.6,176.5,211.6,176.5L211.6,176.5z"/>
			</g>
			
				<ellipse transform="matrix(0.8633 -0.5047 0.5047 0.8633 -75.0929 136.7646)" class="st55" cx="214.9" cy="207" rx="6" ry="10.5"/>
			<polygon class="st4" points="202.3,164.4 214.9,157.2 240.1,171.6 227.5,178.9 			"/>
			
				<linearGradient id="SVGID_13_" gradientUnits="userSpaceOnUse" x1="258.3514" y1="347.597" x2="189.9292" y2="314.8048" gradientTransform="matrix(1 0 0 -1 0 538)">
				<stop  offset="0" style="stop-color:#BBD730;stop-opacity:0.9668"/>
				<stop  offset="1.342147e-03" style="stop-color:#C1D82F"/>
				<stop  offset="1" style="stop-color:#C1D82F;stop-opacity:0"/>
			</linearGradient>
			<polygon class="st88" points="209.2,198.2 166.8,213.9 188,244.5 221.2,215.1 			"/>
		</g>
	</g>
	<g class="st89">
		<g>
			<path class="st21" d="M409.7,339.4v11.1l1.9-1.1l1.9-1.1l0.1-6.7l0.1-6.7l1.9-1.1l1.9-1.1l0.1,2.2l0.1,2.2l1.9-1.1l1.9-1.1v-2.4
				v-2.4l1.8-1l1.8-0.9l0.1,6.6l0.1,6.6l1.9-1.1l1.9-1.1v-11.1V317l-1.9,1.1l-1.9,1.1v2.2v2.2l-1.9,1.1l-1.9,1.1v2.2v2.2l-1.9,1.1
				l-1.9,1.1v-2.2V328l-2.1,1.2l-2.1,1.2v-2.2V326l-1.9,1.1l-1.9,1.1V339.4z"/>
		</g>
		<g>
			<path class="st21" d="M445.2,310v2.2l-1.9,1.1l-1.9,1.1v6.7v6.7l1.9-1.1l1.9-1.1v2.2v2.2l5.7-3.3l5.7-3.3v-2.2V319l1.9-1.1
				l1.9-1.1v-6.7v-6.7l-1.9,1.1l-1.9,1.1v-2.2v-2.2l-5.7,3.3l-5.7,3.3V310z M456.4,312.5v6.5l-5.6,3.3l-5.6,3.3v-6.7v-6.7l5.6-3.2
				l5.6-3.1V312.5z"/>
		</g>
		<g>
			<path class="st21" d="M472.7,303v11.1l1.9-1.1l1.9-1.1v-6.7v-6.8l1.8-1l1.8-0.9l0.1,2.2l0.1,2.2l1.9-1.1l1.9-1.1v2.2v2.2l1.9-1.1
				l1.9-1.1v2.2v2.2l1.9-1.1l1.9-1.1V292v-11l-1.9,1.1l-1.9,1.1v6.7v6.8l-1.8,0.9l-1.8,1l-0.1-2.2l-0.1-2.2l-1.9,1.1l-1.9,1.1v-2.2
				V292l-1.9,1.1l-1.9,1.1V292v-2.2l-1.9,1.1l-1.9,1.1V303z"/>
		</g>
		<g>
			<path class="st21" d="M504.1,284.9V296l9.5-5.5l9.5-5.5v-2.2v-2.2l-7.5,4.3l-7.5,4.2L508,287l-0.1-2l5.7-3.3l5.7-3.3V276v-2.4
				l-5.7,3.3l-5.7,3.3l0.1-2.2l0.1-2.1l7.5-4.5l7.5-4.4v-2.2v-2.2l-9.5,5.5l-9.5,5.5L504.1,284.9L504.1,284.9z"/>
		</g>
		<g>
			<path class="st21" d="M535.4,257.9v2.2l3.8-2.2l3.8-2.2v8.9v8.9l1.9-1.1l1.9-1.1l0.1-8.9l0.1-8.8l3.9-2.4l3.9-2.3v-2.1v-2.2
				l-9.7,5.6l-9.7,5.6V257.9z"/>
		</g>
	</g>
	
		<linearGradient id="SVGID_14_" gradientUnits="userSpaceOnUse" x1="308.4558" y1="255.5773" x2="384.2417" y2="334.8765" gradientTransform="matrix(1 0 0 -1 0 538)">
		<stop  offset="0" style="stop-color:#1C3F94;stop-opacity:0.9"/>
		<stop  offset="0.9966" style="stop-color:#A1FFFC;stop-opacity:0"/>
	</linearGradient>
	<polygon class="st90" points="244.6,265.5 394.1,216.3 404.5,221.6 315.3,359 	"/>
	<g>
		<g>
			<circle id="SVGID_831_" class="st51" cx="266.2" cy="322.7" r="59.6"/>
		</g>
		<g>
			<defs>
				<circle id="SVGID_15_" cx="266.2" cy="322.7" r="59.6"/>
			</defs>
			<clipPath id="SVGID_16_">
				<use xlink:href="#SVGID_15_"  style="overflow:visible;"/>
			</clipPath>
			<g class="st91">
				<polygon class="st53" points="245.4,235.3 239.5,245.6 222.4,235.8 228.3,225.5 				"/>
				<polygon class="st54" points="268.7,248.8 244.2,290.9 254.1,254.1 239.5,245.6 245.4,235.3 				"/>
				<polygon class="st55" points="252.3,228.4 247.6,236.6 235,229.4 239.7,221.2 				"/>
				<polygon class="st56" points="267.9,237.5 263.2,245.6 247.6,236.6 252.3,228.4 				"/>
				<polygon class="st53" points="272.6,251 266.7,261.3 249.6,251.5 255.5,241.1 				"/>
				<polygon class="st54" points="295.9,264.4 271.4,306.6 281.3,269.8 266.7,261.3 272.6,251 				"/>
				<polygon class="st55" points="279.5,244.1 274.8,252.2 262.2,245 266.9,236.9 				"/>
				<polygon class="st56" points="295.1,253.1 290.4,261.3 274.8,252.2 279.5,244.1 				"/>
				<path class="st57" d="M209.7,303.8l-37.6,21.7c-3,1.7-5.6,0.7-6.2-2.5l-7.7-44.4c-0.7-4.1,2.3-10,6.2-12.3l52.9-30.6
					c3.9-2.3,6.9,0.2,6.2,5.2l-7.7,53.2C215.3,298,212.7,302,209.7,303.8z"/>
				<path class="st58" d="M221.7,235.3l85.6,49.4l-0.6,2.7l-89.3-51.6C217.4,235.8,219.6,234.2,221.7,235.3z"/>
				<polygon class="st53" points="298.6,265.9 292.6,276.2 275.5,266.4 281.5,256.1 				"/>
				<polygon class="st54" points="321.9,279.4 297.4,321.5 307.3,284.7 292.6,276.2 298.6,265.9 				"/>
				<polygon class="st55" points="305.5,259 300.8,267.2 288.2,260 292.9,251.8 				"/>
				
					<rect x="306.2" y="258.7" transform="matrix(0.5002 -0.8659 0.8659 0.5002 -76.4063 403.0327)" class="st56" width="9.4" height="18.1"/>
				<path class="st59" d="M291,368.3l-29.3,16.9c-1.9,1.1-3.4,0.2-3.4-1.9v-16.7l36-20.8v16.7C294.4,364.6,292.9,367.2,291,368.3z"
					/>
				<path d="M259.4,370l-73.1-38.9v10.6c0,1.1,0.4,1.9,1.1,2.2l72,41.7V370z"/>
				<polygon class="st60" points="164.4,266.3 249.9,315.6 302.8,285.1 217.4,235.8 				"/>
				<path class="st59" d="M167.7,325.9l85.4,49.3l-1.8-2.9L165.9,323C165.9,323,166.3,325.2,167.7,325.9z"/>
				<path class="st59" d="M249.9,315.6l-85.4-49.3c-7.5,4.9-6.2,12.3-6.2,12.3l85.4,49.3L249.9,315.6z"/>
				<path class="st61" d="M295.1,353.1l-37.6,21.7c-3,1.8-5.6,0.7-6.2-2.5l-7.7-44.4c-0.7-4.1,2.3-10,6.2-12.3l52.9-30.6
					c3.9-2.3,6.9,0.2,6.2,5.2l-7.7,53.2C300.8,347.3,298.1,351.4,295.1,353.1z"/>
				<path class="st60" d="M305.2,293.2c0,3.5-2.5,7.8-5.5,9.6c-3.1,1.8-5.5,0.3-5.5-3.2s2.5-7.8,5.5-9.6
					C302.7,288.2,305.2,289.6,305.2,293.2z"/>
				<path class="st60" d="M298.2,343.6c0,2.3-1.6,5.1-3.6,6.3c-2,1.2-3.6,0.2-3.6-2.1c0-2.3,1.6-5.1,3.6-6.3
					C296.6,340.3,298.2,341.3,298.2,343.6z"/>
				<path class="st60" d="M261.9,364.5c0,2.3-1.6,5.1-3.6,6.3c-2,1.2-3.6,0.2-3.6-2.1c0-2.3,1.6-5.1,3.6-6.3
					C260.3,361.3,261.9,362.2,261.9,364.5z"/>
				<path class="st60" d="M258.3,320.2c0,3.5-2.5,7.8-5.6,9.6c-3.1,1.8-5.5,0.3-5.5-3.2c0-3.6,2.5-7.8,5.5-9.6
					C255.8,315.3,258.3,316.7,258.3,320.2z"/>
				<path class="st62" d="M206.5,232.8L206.5,232.8L206.5,232.8L206.5,232.8c-1.2-0.7-2.8-0.6-4.6,0.5L180,245.9
					c-3.6,2.1-6.5,7.1-6.5,11.3v3.9l85.4,49.3l33.1-28.3L206.5,232.8z"/>
				<path class="st63" d="M265.4,295.3l21.9-12.6c3.6-2.1,6.5-0.4,6.5,3.7v3.9l-34.9,20.2v-3.9C258.9,302.4,261.8,297.3,265.4,295.3
					z"/>
				<path class="st64" d="M280,326.2c0,2.4-1.7,5.2-3.7,6.4c-2,1.2-3.7,0.2-3.7-2.1c0-2.4,1.7-5.2,3.7-6.4
					C278.4,322.9,280,323.9,280,326.2z"/>
				<g>
					<path class="st55" d="M275.4,322.1l-3.7-2.1l-3-13.8c0-3.1,2.2-6.9,4.9-8.5l10.4-6l3.7,2.1L275.4,322.1z"/>
					<path class="st55" d="M286.2,318.5l-6.4-3.7l7.4-17.7c1.9-3.3,5-5.1,6.9-4l7.3,4.2L286.2,318.5z"/>
					<path class="st55" d="M306.4,308.2l-3.6-2.1l0,0l0,0l0,0c-0.9-0.5-2.1-0.4-3.4,0.3L286,317.6V328L306.4,308.2z"/>
					<polygon class="st55" points="301.6,330.9 297.9,328.7 286.3,326.9 279.9,338 290.6,349.4 294.3,351.5 					"/>
					<path class="st55" d="M271.7,342.3l9-5.2l3,13.8c0,3.1-2.2,6.9-4.9,8.5l-6.6,8.1l-3.7-2.1L271.7,342.3z"/>
					<path class="st55" d="M266.2,338.5l6.4,3.7l-7.4,17.7c-1.9,3.3-5,5.1-6.9,4l-7.3-4.2L266.2,338.5z"/>
					<path class="st55" d="M267.5,332.1l-3.9-2.1l-15.4,5.8v12c0,1.5,0.5,2.6,1.3,3.1l0,0l4.2,2.4l0.5-4.1l0,0L267.5,332.1z"/>
					<path class="st55" d="M265.6,309.8l-7.3,20.6l-3.7-2.1c-1.9-1.1-1.9-4.7,0-8l7.3-12.7L265.6,309.8z"/>
					<path class="st56" d="M284.4,316.9l-9,5.2l-3-13.8c0-3.1,2.2-6.9,4.9-8.5l10.4-6L284.4,316.9z"/>
					<path class="st56" d="M288.9,320.3l-6.4-3.7l7.4-17.7c1.9-3.3,5-5.1,6.9-4l7.3,4.2L288.9,320.3z"/>
					<path class="st56" d="M289.6,330.3v-10.4l13.4-11.2c2.7-1.5,4.9-0.3,4.9,2.8v12L289.6,330.3z"/>
					<path class="st56" d="M283.6,340.1L290,329l11.6,1.8c1.9,1.1,1.9,4.7,0,8l-7.3,12.7L283.6,340.1z"/>
					<path class="st56" d="M275.4,344.4l9-5.2l3,13.8c0,3.1-2.2,6.9-4.9,8.5l-10.3,6L275.4,344.4z"/>
					<path class="st56" d="M269.9,340.7l6.4,3.7l-7.4,17.7c-1.9,3.3-5,5.1-6.9,4l-7.3-4.2L269.9,340.7z"/>
					<path class="st56" d="M270.3,331v10.4l-13.4,11.2c-2.7,1.5-4.9,0.3-4.9-2.8v-12L270.3,331z"/>
					<path class="st56" d="M276.3,321.2l-6.4,11.1l-11.6-1.9c-1.9-1.1-1.9-4.7,0-8l7.3-12.7L276.3,321.2z"/>
					<path class="st21" d="M299,319.6c0,12.1-8.5,26.8-19,32.9s-19,1.2-19-11c0-12.1,8.5-26.8,19-32.9S299,307.5,299,319.6z"/>
				</g>
				<polygon class="st61" points="165.9,323 251.3,372.3 243.7,328 158.3,278.6 				"/>
				<polygon class="st53" points="150.3,320 133.1,310.2 159.9,263.7 177.1,273.6 				"/>
				<polygon class="st54" points="177.1,273.6 185,278.2 178.7,290.6 185.1,334.2 150.3,320 				"/>
				<polygon class="st53" points="176.5,335.1 159.3,325.3 186.1,278.8 203.3,288.7 				"/>
				<polygon class="st54" points="203.3,288.7 211.2,293.3 204.9,305.7 211.2,349.3 176.5,335.1 				"/>
				<polygon class="st53" points="202.5,350 185.3,340.2 212.2,293.7 229.3,303.6 				"/>
				<polygon class="st54" points="229.3,303.6 237.2,308.2 230.9,320.6 237.3,364.2 202.5,350 				"/>
				<polygon class="st56" points="215.3,311.1 221.1,314.5 208.2,336.8 202.4,333.4 				"/>
				
					<rect x="189.4" y="311" transform="matrix(0.5007 -0.8656 0.8656 0.5007 -174.7081 334.1581)" class="st55" width="25.8" height="15"/>
				<polygon class="st56" points="189.1,295.9 194.9,299.3 182,321.7 176.2,318.3 				"/>
				<polygon class="st55" points="176.1,288.4 189.1,295.9 176.2,318.3 163.2,310.8 				"/>
				<polygon class="st56" points="162.8,280.8 168.6,284.2 155.7,306.5 150,303.1 				"/>
				<polygon class="st55" points="149.8,273.3 162.8,280.8 150,303.1 136.9,295.6 				"/>
				<g>
					<path class="st66" d="M212.2,234.6l11.4-6.5c1.5-0.8,3.1-0.8,4.5-0.2l-10.5-6.1l0,0c-1.4-0.9-3.3-1-4.9-0.1l-11.4,6.5v11.5
						l8.7-5l2.2,1.3V234.6z"/>
					<path class="st65" d="M212.2,234.6v11.5l8.7-5l7.8,4.5l2.1-1.2v-12.2c0-3.7-4-6-7.2-4.2L212.2,234.6z"/>
					<polygon class="st67" points="212.2,246.2 201.2,239.8 201.2,228.3 212.2,234.6 					"/>
				</g>
				<g>
					<path class="st66" d="M228,243.8l11.4-6.5c1.5-0.9,3.1-0.8,4.5-0.2l-10.5-6.1l0,0c-1.4-0.9-3.3-1-4.9-0.1l-11.4,6.5V249l8.7-5
						l2.2,1.3V243.8z"/>
					<path class="st65" d="M228,243.8v11.5l8.7-5l7.8,4.5l2.1-1.2v-12.2c0-3.7-4-6-7.2-4.2L228,243.8z"/>
					<polygon class="st67" points="228,255.3 217,249 217,237.4 228,243.8 					"/>
				</g>
				<g>
					<path class="st66" d="M243,252.4l11.4-6.5c1.5-0.8,3.1-0.8,4.5-0.2l-10.5-6.1l0,0c-1.4-0.9-3.3-1-4.9-0.1l-11.4,6.5v11.5l8.7-5
						l2.3,1.3v-1.4H243z"/>
					<path class="st65" d="M243,252.4V264l8.7-5l7.8,4.5l2.1-1.2v-12.2c0-3.7-4-6-7.2-4.2L243,252.4z"/>
					<polygon class="st67" points="243,264 232,257.6 232,246.1 243,252.4 					"/>
				</g>
				<g>
					<path class="st66" d="M258.3,261.3l11.4-6.5c1.5-0.9,3.1-0.8,4.5-0.2l-10.5-6.1l0,0c-1.4-0.9-3.3-1-4.9-0.1l-11.4,6.5v11.5
						l8.7-5l2.3,1.3v-1.4H258.3z"/>
					<path class="st65" d="M258.3,261.3v11.5l8.7-5l7.8,4.5l2.1-1.2v-12.2c0-3.7-4-6-7.2-4.2L258.3,261.3z"/>
					<polygon class="st67" points="258.3,272.8 247.3,266.4 247.3,254.9 258.3,261.3 					"/>
				</g>
				<g>
					<path class="st66" d="M273.3,269.9l11.4-6.5c1.5-0.9,3.1-0.8,4.5-0.2l-10.5-6.1l0,0c-1.4-0.9-3.3-1-4.9-0.1l-11.4,6.5V275
						l8.7-5l2.2,1.3L273.3,269.9L273.3,269.9z"/>
					<path class="st65" d="M273.3,269.9v11.5l8.7-5l7.8,4.5l2.1-1.2v-12.2c0-3.7-4-6-7.2-4.2L273.3,269.9z"/>
					<polygon class="st67" points="273.3,281.5 262.4,275.1 262.4,263.6 273.3,269.9 					"/>
				</g>
				<g>
					<path class="st56" d="M186.4,236.3v7.8l0,0c0,1.4,0.9,2.9,2.8,3.9c3.8,2.2,9.9,2.2,13.7,0c1.9-1.1,2.8-2.5,2.8-3.9v-7.8H186.4z
						"/>
					<path class="st55" d="M202.9,240.2c-3.8,2.2-9.9,2.2-13.7,0s-3.8-5.7,0-7.9s9.9-2.2,13.7,0S206.7,238,202.9,240.2z"/>
				</g>
				<g>
					<path class="st56" d="M203.9,246.4v7.8l0,0c0,1.4,0.9,2.9,2.8,3.9c3.8,2.2,9.9,2.2,13.7,0c1.9-1.1,2.8-2.5,2.8-3.9v-7.8
						L203.9,246.4L203.9,246.4z"/>
					<path class="st55" d="M220.4,250.3c-3.8,2.2-9.9,2.2-13.7,0s-3.8-5.7,0-7.9s9.9-2.2,13.7,0S224.2,248.1,220.4,250.3z"/>
				</g>
				<g>
					<path class="st56" d="M221.5,256.6v7.8l0,0c0,1.4,0.9,2.9,2.8,4c3.8,2.2,9.9,2.2,13.7,0c1.9-1.1,2.8-2.5,2.8-4v-7.8H221.5z"/>
					<path class="st55" d="M238,260.5c-3.8,2.2-9.9,2.2-13.7,0s-3.8-5.7,0-7.9s9.9-2.2,13.7,0S241.8,258.3,238,260.5z"/>
				</g>
				<g>
					<path class="st56" d="M239.2,266.7v7.8l0,0c0,1.4,0.9,2.9,2.8,3.9c3.8,2.2,9.9,2.2,13.7,0c1.9-1.1,2.8-2.5,2.8-3.9v-7.8H239.2z
						"/>
					<path class="st55" d="M255.7,270.7c-3.8,2.2-9.9,2.2-13.7,0s-3.8-5.7,0-7.9c3.8-2.2,9.9-2.2,13.7,0
						C259.5,265,259.5,268.5,255.7,270.7z"/>
				</g>
				<g>
					<path class="st56" d="M257,277v7.8l0,0c0,1.4,0.9,2.9,2.8,4c3.8,2.2,9.9,2.2,13.7,0c1.9-1.1,2.8-2.5,2.8-4V277H257z"/>
					<path class="st55" d="M273.5,281c-3.8,2.2-9.9,2.2-13.7,0c-3.8-2.2-3.8-5.7,0-7.9c3.8-2.2,9.9-2.2,13.7,0
						C277.3,275.2,277.3,278.8,273.5,281z"/>
				</g>
				<g>
					<path class="st66" d="M186.9,237.4l-10.8,6.3c-3.6,2.1-6.5,7.1-6.5,11.2v13l11,6.3l4.1-18.4l13.2-12.1L186.9,237.4z"/>
					<path class="st65" d="M197.8,243.7L187,250c-3.6,2.1-6.5,7.1-6.5,11.2v13l8-4.5v-4.2c0-3.1,1.6-6,4.3-7.5l5-2.9V243.7z"/>
				</g>
				<g>
					<path class="st66" d="M201.9,246.1l-10.8,6.3c-3.6,2.1-6.5,7.1-6.5,11.3v13l11,6.3l4.1-18.4l13.2-12.1L201.9,246.1z"/>
					<path class="st65" d="M212.9,252.4l-10.8,6.3c-3.6,2.1-6.5,7.1-6.5,11.2v13l8-4.5v-4.2c0-3.1,1.7-6,4.3-7.5l5-2.9V252.4z"/>
				</g>
				<g>
					<path class="st66" d="M217,254.8l-10.8,6.3c-3.6,2.1-6.5,7.1-6.5,11.2v13l11,6.3l4.1-18.4l13.2-12.1L217,254.8z"/>
					<path class="st65" d="M227.9,261.1l-10.8,6.3c-3.6,2.1-6.5,7.1-6.5,11.2v13l8-4.5V283c0-3.1,1.7-6,4.3-7.5l5-2.9V261.1z"/>
				</g>
				<g>
					<path class="st66" d="M232.3,263.6l-10.8,6.3c-3.6,2.1-6.5,7.1-6.5,11.2v13l11,6.3l4-18.4l13.3-12.1L232.3,263.6z"/>
					<path class="st65" d="M243.3,270l-10.8,6.3c-3.6,2.1-6.5,7.1-6.5,11.2v13l8-4.5v-4.2c0-3.1,1.7-6,4.3-7.5l5-2.9V270z"/>
				</g>
				<g>
					<path class="st66" d="M247.4,272.3l-10.8,6.3c-3.6,2.1-6.5,7.1-6.5,11.3v13l11,6.3l4.1-18.4l13.2-12.1L247.4,272.3z"/>
					<path class="st65" d="M258.3,278.7l-10.8,6.3c-3.6,2.1-6.5,7.1-6.5,11.2v13l8-4.5v-4.1c0-3.1,1.7-6,4.3-7.5l5-2.9V278.7z"/>
				</g>
			</g>
		</g>
		<g>
			<circle id="SVGID_1_" class="st92" cx="266.2" cy="322.7" r="59.6"/>
		</g>
	</g>
	<g id="Babble_core_8_">
		<g>
			<path d="M279.1,317.5c1.9-1.7,4.1-3.6,5.9-4.6c1.8-1.1,3.6-0.8,3.6,1.3c0,2.4-1.1,5.2-3.3,7.8v0.1c0.3-0.2,0.5-0.4,0.8-0.6
				c3.1-1.8,4.7,0,4.7,2.6c0,10-12.1,19.7-14.7,21.4c-2.6,1.7-5.7,3.7-5.7,2.5c-0.1-2,3.9-3.8,5.6-5.2v-21.2c0-0.4,0-0.8,0.2-1.2
				C276.5,319.8,277.9,318.6,279.1,317.5z M279.1,326.2c3-1.9,6.4-6.6,6.4-8.9c0-0.9-0.3-1.5-1.8-0.7c-1.3,0.7-3.5,2.7-4.6,4.1
				V326.2L279.1,326.2z M279.1,339.9c2.8-2.1,8.5-8.3,8.5-13.4c0-1.5-1.1-2.6-3.3-1.3c-1.5,0.9-2.8,2-4,3.3
				c-0.8,0.8-1.1,1.4-1.1,1.9L279.1,339.9L279.1,339.9z"/>
		</g>
		<g>
			<path d="M286.4,320.7c0,0,5.7-2.5,5.8-2.5c0.1,0,0.2,0,0.1,0.2s-0.3,0.4-0.5,0.5s-5.7,3.6-5.7,3.6L283,324l2.6-4.3l0.9-1.5
				l1.7-1.7c0,0,2.8-3.4,3.8-4.7c0.3-0.3,0.5-0.3,0.3,0c-1.5,2.4-6.8,9.9-6.9,10.1c-0.1,0.1-0.1,0.3,0,0.3s5.4-3,5.4-3
				s-4.1,1.7-4.2,1.7C286.4,320.9,286.4,320.8,286.4,320.7z"/>
		</g>
		<g>
			<path d="M283.5,319.7c0,0.3-0.2,0.6-0.4,0.7c-0.2,0.1-0.4,0-0.4-0.2c0-0.3,0.2-0.6,0.4-0.7S283.5,319.5,283.5,319.7z"/>
		</g>
		<g>
			<path d="M283.1,321.2c-0.4,0.2-0.7,0-0.7-0.4c0-0.5,0.3-1.1,0.7-1.3v0.2c-0.3,0.2-0.5,0.6-0.5,0.9s0.2,0.5,0.5,0.3V321.2z"/>
		</g>
		<g>
			<path d="M278.4,350.2h-0.1l-0.6-0.6c0,0,0,0,0-0.1v-5.2c0-0.1,0.1-0.2,0.1-0.2c0.1,0,0.1,0,0.1,0.1v5.2l0.6,0.6
				C278.5,350,278.5,350.1,278.4,350.2L278.4,350.2z"/>
		</g>
		<g>
			<path d="M278.8,349.4L278.8,349.4l-1.1,0.2c-0.1,0-0.1-0.1-0.1-0.2s0.1-0.2,0.2-0.2l1-0.2c0.1,0,0.1,0.1,0.1,0.2
				S278.9,349.4,278.8,349.4z"/>
		</g>
		<g>
			<path d="M277.7,349.6c-0.1,0-0.1,0-0.1-0.1s0-0.2,0.1-0.2l1-0.7c0.1-0.1,0.1,0,0.2,0c0,0.1,0,0.2-0.1,0.2L277.7,349.6
				C277.8,349.6,277.8,349.6,277.7,349.6z"/>
		</g>
		<g>
			<path d="M280.5,348.2C280.5,348.2,280.4,348.2,280.5,348.2h-0.9c0,0-0.1,0-0.1-0.1v-5.4c0-0.1,0.1-0.2,0.1-0.2
				c0.1,0,0.1,0,0.1,0.1v5.3h0.7c0.1,0,0.1,0.1,0.1,0.2C280.6,348.1,280.5,348.2,280.5,348.2z"/>
		</g>
		<g>
			<path d="M280.9,347.7C280.9,347.7,280.8,347.7,280.9,347.7l-1.2,0.6c-0.1,0-0.1,0-0.1-0.1s0.1-0.2,0.2-0.2l1.2-0.5
				c0.1,0,0.1,0,0.1,0.1C281,347.5,280.9,347.6,280.9,347.7z"/>
		</g>
		<g>
			<path d="M279.7,348.2c-0.1,0-0.1,0-0.1,0c0-0.1,0-0.2,0.1-0.3l1.3-1.1c0.1-0.1,0.2-0.1,0.2,0s0,0.2-0.1,0.3L279.7,348.2
				L279.7,348.2z"/>
		</g>
		<g>
			<path class="st93" d="M281.7,328.5c0.4-0.4,0.8-1,0.8-1.6s-0.4-0.8-0.8-0.6c0,0-2.1,1.5-2.7,2.3c-0.7,0.8-0.8,1.5-0.8,2.2
				s0,3.8,0,4.6c0,0.8-0.3,3.1-1.7,4.9l-1.8,2c-0.2,0.2-0.5,0.6-0.5,0.9s0.2,0.4,0.4,0.3c0,0,5.3-3,5.3-8.3c0,0,0-4,0-4.3
				c0-0.4,0-0.7,0.3-1C280.6,329.4,281.7,328.5,281.7,328.5z"/>
		</g>
	</g>
</g>
</svg>
