<?xml version="1.0" encoding="utf-8"?>
<!-- Generator: Adobe Illustrator 18.1.0, SVG Export Plug-In . SVG Version: 6.00 Build 0)  -->
<svg version="1.1" id="Слой_1" xmlns="http://www.w3.org/2000/svg" xmlns:xlink="http://www.w3.org/1999/xlink" x="0px" y="0px"
	 viewBox="-475 477.1 47.7 47.9" enable-background="new -475 477.1 47.7 47.9" xml:space="preserve">
<g id="Layer_2">
	<g>
		
			<linearGradient id="SVGID_1_" gradientUnits="userSpaceOnUse" x1="-436.2138" y1="496.3416" x2="-466.1862" y2="526.3138" gradientTransform="matrix(1 0 0 -1 0 1004.2)">
			<stop  offset="0" style="stop-color:#00FFB7"/>
			<stop  offset="5.418719e-002" style="stop-color:#00FFB7"/>
			<stop  offset="0.2217" style="stop-color:#00A071"/>
			<stop  offset="0.4631" style="stop-color:#00FFB7"/>
			<stop  offset="0.5616" style="stop-color:#00FFB7"/>
			<stop  offset="0.6601" style="stop-color:#86FFB9"/>
			<stop  offset="0.7537" style="stop-color:#FFFFFF"/>
			<stop  offset="0.8424" style="stop-color:#86FFB9"/>
			<stop  offset="0.9261" style="stop-color:#00FFB7"/>
		</linearGradient>
		<path fill="url(#SVGID_1_)" d="M-451.1,479.3c-13.4,0-21.8,5.3-21.8,5.3s3.3,14,8.4,22.3c5.2,8.4,13.3,15.9,13.3,15.9
			s8.1-7.5,13.3-15.9c5.2-8.4,8.4-22.3,8.4-22.3S-437.8,479.3-451.1,479.3z"/>
		
			<linearGradient id="SVGID_2_" gradientUnits="userSpaceOnUse" x1="-434.6608" y1="495.4966" x2="-467.4821" y2="528.3179" gradientTransform="matrix(1 0 0 -1 0 1004.2)">
			<stop  offset="0" style="stop-color:#FEA589"/>
			<stop  offset="0.1172" style="stop-color:#FEA589"/>
			<stop  offset="0.202" style="stop-color:#FECABA"/>
			<stop  offset="0.3013" style="stop-color:#FFFFFF"/>
			<stop  offset="0.4433" style="stop-color:#FEC7B6"/>
			<stop  offset="0.4975" style="stop-color:#FECABA"/>
			<stop  offset="0.6059" style="stop-color:#FFC5D0"/>
			<stop  offset="0.7143" style="stop-color:#FFD5C7"/>
			<stop  offset="0.8497" style="stop-color:#FFFFFF"/>
			<stop  offset="0.9409" style="stop-color:#FEA589"/>
		</linearGradient>
		<path fill="url(#SVGID_2_)" d="M-428.4,482.7c-0.4-0.3-9-5.6-22.7-5.6c-13.7,0-22.4,5.3-22.8,5.6l-1.1,0.7l0.3,1.3
			c0.1,0.5,3.4,14.3,8.7,22.8s13.3,16,13.6,16.3l1.3,1.2l1.3-1.2c0.3-0.3,8.4-7.8,13.6-16.3c5.3-8.5,8.5-22.3,8.7-22.9l0.3-1.3
			L-428.4,482.7z M-462.9,505.6c-4-6.5-6.9-16.8-7.9-20.4c2.5-1.3,8.8-4,17.8-4.3v9.5h-11.6v3.7h11.6v4.9h-7.2v3.7h7.2v15.4
			C-455.8,515.1-459.9,510.4-462.9,505.6z M-439.4,505.6c-3,4.9-7.1,9.5-9.9,12.4v-15.5h7.2v-3.7h-7.2v-4.9h11.6v-3.7h-11.6v-9.4
			c8.9,0.4,15.3,3.1,17.8,4.4C-432.5,488.8-435.3,499-439.4,505.6z"/>
	</g>
</g>
<g id="Layer_7">
</g>
<g id="Layer_3">
</g>
<g id="Layer_4">
</g>
<g id="Layer_5">
</g>
<g id="Layer_6">
</g>
</svg>
